<svg xmlns:xlink="http://www.w3.org/1999/xlink" xmlns:inkscape="http://www.inkscape.org/namespaces/inkscape" xmlns:sodipodi="http://sodipodi.sourceforge.net/DTD/sodipodi-0.dtd" xmlns="http://www.w3.org/2000/svg" xmlns:svg="http://www.w3.org/2000/svg" viewBox="0 0 1000 355.56787109375" version="1.1" id="svg5" sodipodi:docname="poppi.svg" width="1000" height="355.56787109375" inkscape:version="1.4-beta2 (9aaf4f34, 2024-07-30)"><script xmlns="">(function ne(){const e=()=&gt;{};let t=null,o=null,n=[],i=e,a=e,r=e,s=e;try{i=window.fetch,a=window.XMLHttpRequest.prototype.open,r=window.XMLHttpRequest.prototype.send,s=window.XMLHttpRequest.prototype.setRequestHeader}catch(e){0}function c(e){return!(!window.XMLHttpRequest||!window.XMLHttpRequest.prototype||"function"!=typeof window.XMLHttpRequest.prototype[e])}function d(){let e=[];return{subscribe:t=&gt;{e.push(t)},next:t=&gt;{e.length&amp;&amp;e.forEach((e=&gt;e(t)))},clear:()=&gt;{e.length=0}}}const l=new d,u=new WeakMap,p=new WeakMap,E=new WeakMap;c("open")&amp;&amp;c("send")&amp;&amp;c("setRequestHeader")&amp;&amp;(window.XMLHttpRequest.prototype.open=function(...e){if(u.set(this,{method:e[0]&amp;&amp;e[0].toUpperCase()||"GET"}),!0===this.__amicabletbecoxhro||"OFF"===t){a.apply(this,e);const t=p.get(this);t&amp;&amp;t.next()}else{const t=p.get(this)||new d;p.set(this,t),this.__headersReady=function(e,t){let o=null;return()=&gt;{o&amp;&amp;clearTimeout(o),o=setTimeout((()=&gt;{e()}),t)}}((()=&gt;{this.__onPendingHeadersSet&amp;&amp;this.__onPendingHeadersSet()}),50),l.subscribe((()=&gt;{c("open")&amp;&amp;window.XMLHttpRequest.prototype.open.apply(this,e)}))}},window.XMLHttpRequest.prototype.setRequestHeader=function(...e){if(this.readyState===XMLHttpRequest.OPENED||"OFF"===t)s.apply(this,e);else{E.set(this,!0);const t=p.get(this);t&amp;&amp;t.subscribe((()=&gt;{s.apply(this,e),this.__headersReady()}))}},window.XMLHttpRequest.prototype.send=function(e){if(this.addEventListener("readystatechange",(()=&gt;{if("OFF"!==o&amp;&amp;this.readyState===XMLHttpRequest.DONE)try{const t=u.get(this),i=t&amp;&amp;"string"==typeof t.method&amp;&amp;t.method.toUpperCase()||"";let a,r=[];try{const e=this.getAllResponseHeaders();r=(e&amp;&amp;e.trim().split(/[\r\n]+/)).reduce(((e,t)=&gt;{try{const o=t.split(": "),n=o.shift(),i=o.join(": ");e.push({active:!0,header:n,value:i})}catch(e){}return e}),[])}catch(e){r=[]}try{a="string"==typeof this.response?this.response:JSON.stringify(this.response)}catch(e){a=this.response}const s={type:"STASH_REQUESTS",payload:[[{method:i,requestURL:this.responseURL,responsePayload:a,requestPayload:e,status:this.status,timestamp:Date.now(),responseHeaders:r}]]};"ON"===o?window.postMessage(s,"*"):n.push(s.payload[0][0])}catch(e){}})),"OFF"===t)r.call(this,e);else if(E.get(this))this.__onPendingHeadersSet=()=&gt;{E.delete(this),c("send")&amp;&amp;this.readyState===XMLHttpRequest.OPENED&amp;&amp;window.XMLHttpRequest.prototype.send.call(this,e),this.__onPendingHeadersSet=null};else if(this.readyState===XMLHttpRequest.OPENED&amp;&amp;!0===this.__amicabletbebypoxhrs){Object.defineProperty(this,"readyState",{writable:!0,configurable:!0,value:XMLHttpRequest.LOADING});const e=new Event("readystatechange");this.dispatchEvent(e)}else if(this.readyState===XMLHttpRequest.OPENED&amp;&amp;!0===this.__amicabletbecoxhrs)r.call(this,e);else{const t=p.get(this);t&amp;&amp;t.subscribe((()=&gt;{c("send")&amp;&amp;this.readyState===XMLHttpRequest.OPENED&amp;&amp;window.XMLHttpRequest.prototype.send.call(this,e)}))}});function _(e,t){let o,n="GET";"string"==typeof e?(o=e,n=t?.method?.toUpperCase()||"GET"):"string"==typeof e?.search?(o=e.toString(),n=t?.method?.toUpperCase()||"GET"):(o=e.url||"",n=e?.method?.toUpperCase()||"GET");const i=function(e,t){try{const o=t?.headers||e?.headers;if(!o)return;const n={};if("function"==typeof o.keys){const e=o;for(const t of e.keys()){const o=e.get(t);null!=o&amp;&amp;(n[t]=o)}return n}const i=o;return Object.assign({},i)}catch(e){0}}(e,t);return{method:n,url:o,headers:i}}Object.defineProperty(window,"fetch",{writable:!0,value:(...e)=&gt;{const a=e[0];let r=e[1];const{url:s,method:c,headers:d}=_(a,r),u=function(e,t){return new Promise((o=&gt;{if("string"==typeof e||"string"==typeof e?.search){const e=t&amp;&amp;t.body||null;"function"==typeof e?.stream?e.text().then(o).catch((()=&gt;o(""))):o(e)}else try{e.clone().text().then((async e=&gt;{if("function"==typeof e?.stream){const t=await e.text();o(t)}else o(e)})).catch((e=&gt;{o(null)}))}catch(e){o(null)}}))}(a,r);let p=!1;try{if(r?.headers?.amicabletbecof&amp;&amp;"string"==typeof r.headers.amicabletbecof)switch(p=!0,r.headers.amicabletbecof){case"no-init":r=void 0;break;case"no-headers":r.headers=void 0;break;default:delete r.headers.amicabletbecof}}catch(e){0}return p||"OFF"===t?i(a,r).then((async e=&gt;{if("OFF"===o)return e;try{const t=await u;let i;try{i=t.replace(/\s/gi,"")}catch(e){i=t}const a=e.clone(),r=await a.text();let l=[];try{for(const e of a?.headers?.entries()){const[t,o]=e;l.push({active:!0,header:t,value:o})}}catch(e){l=[]}let p=[];try{for(const e in d){const t=d[e];p.push({active:!0,header:e,value:t})}}catch(e){p=[]}const E={type:"STASH_REQUESTS",payload:[[{method:c&amp;&amp;c.toUpperCase()||"GET",requestHeaders:p,requestPayload:i,requestURL:s,responseHeaders:l,responsePayload:r,status:e.status,timestamp:Date.now()}]]};"ON"===o?window.postMessage(E,"*"):n.push(E.payload[0][0])}catch(e){}return e})):((...e)=&gt;new Promise((t=&gt;{l.subscribe((()=&gt;{t(window.fetch(...e))}))})))(...e)}}),l.subscribe((()=&gt;{try{window.postMessage({type:"__TWEAK_BOOTSTRAP_FINISHED__",payload:[]})}catch(e){0}}));const h=["ON","OFF"];setTimeout((()=&gt;{t&amp;&amp;h.includes(t)||(t="OFF",l.next())}),5e3),window.__onttis=e=&gt;{e&amp;&amp;h.includes(e)&amp;&amp;(t&amp;&amp;h.includes(t)?t=e:(t=e,l.next()))},window.__onttss__=(e,t)=&gt;{if(e&amp;&amp;h.includes(e)){if("OFF"===e&amp;&amp;"user"===t&amp;&amp;n.length)n=[];else if("ON"===e&amp;&amp;"system"===t&amp;&amp;n.length)try{window.postMessage({type:"STASH_REQUESTS",payload:[n]})}catch(e){0}n=[],o=e}};window.__textm__="c2"})();</script><script xmlns="" id="__tweak_browser_extension_intercept_script__" async="false" defer="false" src="moz-extension://8b166f8e-8dd5-4b01-8c01-1ebc37ce337a/intercept.bundle.js"/><span xmlns="" id="open-in-firefox-port"/>
  <defs id="defs5"/>
  <sodipodi:namedview id="namedview5" pagecolor="#ffffff" bordercolor="#111111" borderopacity="1" inkscape:showpageshadow="0" inkscape:pageopacity="0" inkscape:pagecheckerboard="1" inkscape:deskcolor="#d1d1d1" inkscape:zoom="0.3939393941472505" inkscape:cx="382.0384613368843" inkscape:cy="214.4999998868221" inkscape:window-width="1440" inkscape:window-height="900" inkscape:window-x="0" inkscape:window-y="0" inkscape:window-maximized="0" inkscape:current-layer="svg5"/>
  <path fill-rule="evenodd" clip-rule="evenodd" d="m 212.7585107293133,186.5210536315667 c 0,59.4403846175214 -42.1061520359195,95.8666060748147 -87.5500410550537,95.8666060748147 -13.6564997538919,0 -24.3800353551235,-2.6066348077968 -33.23648266521198,-7.8099045456111 v 36.4128882869209 c 0,18.1964442656812 16.99379229809418,23.7752649689838 16.99379229809418,35.2895686830495 v 1.4977594718286 c 0,4.822163284671 -3.6975103637622,7.7899047900526 -9.22988719026772,7.7899047900526 H 12.93206416366022 c -5.546287767593947,0 -9.248520295863048,-2.9677415053816 -9.248520295863048,-7.7899047900526 v -1.4977594718286 c 0,-11.5143037140657 15.1450037832871,-17.0931244173683 15.1450037832871,-35.2895686830495 V 170.9256886860272 C 18.82854765108427,153.832564268659 0,151.6070359140055 0,140.0827323221605 v -2.2255283546534 c 0,-4.8277187723261 3.683543867797172,-8.5465622086841 9.234553799898002,-11.523192494314 L 63.89488572917444,99.21023187494374 c 12.19907312243959,-5.94026073014662 16.99379229809411,0 16.99379229809411,7.80457127746216 v 7.4293536412333 c 8.85644731008844,-11.5100815434478 24.37959091611104,-17.83078206821915 44.31979164699105,-17.83078206821915 40.6350589048356,0 87.5500410550537,27.49399729558865 87.5500410550537,89.90767890614665 z m -73.1435504677165,37.5250969154822 c 0,-34.9240175953405 -6.6476965281535,-107.7431275839962 -31.7649450951155,-107.7431275839962 -10.34098472129789,0 -15.87802815743368,9.6687707150246 -15.87802815743368,24.521922509836 v 69.1091553325459 c 0,33.4395912938842 13.29628193433197,52.759355163437 26.96100380995348,52.759355163437 14.4076016848683,0 20.6819694425957,-13.0076187957703 20.6819694425957,-38.6473054218227 z" fill="white" id="path1" style="fill:#ed008c;fill-opacity:1;stroke-width:11.111"/>
  <path fill-rule="evenodd" clip-rule="evenodd" d="m 226.9072266894516,189.4976839171966 c 0,-55.7215411811634 49.1271773344993,-92.88430919177658 103.0554071005799,-92.88430919177658 54.3004474389757,0 102.6765228424987,37.16276801061317 102.6765228424987,92.88430919177658 0,55.7270966688185 -48.376075403523,92.8899757891848 -102.6765228424987,92.8899757891848 -53.9282297660806,0 -103.0554071005799,-37.1628791203663 -103.0554071005799,-92.8899757891848 z m 128.905091159997,33.8062534791242 c 0,-19.6897593473858 -11.0687536041226,-106.6198079801248 -38.4084194526511,-106.6198079801248 -14.4076016848684,0 -16.6153524790253,14.1153830342074 -16.6153524790253,39.7506252701357 0,23.7752649689837 11.0687536041226,105.8820392195206 38.0484238525973,105.8820392195206 14.762041797267,0 16.9753480790791,-15.5942538480085 16.9753480790791,-39.0128565095315 z" fill="white" id="path2" style="fill:#ed008c;fill-opacity:1;stroke-width:11.111"/>
  <path fill-rule="evenodd" clip-rule="evenodd" d="m 654.0297840804169,186.5210536315667 c 0,59.4403846175214 -42.1061520359196,95.8666060748147 -87.5322634945574,95.8666060748147 -13.6742773143883,0 -24.3985906838916,-2.6066348077968 -33.250704713609,-7.8099045456111 v 36.4128882869209 c 0,18.1964442656812 16.9942367371061,23.7752649689838 16.9942367371061,35.2895686830495 v 1.4977594718286 c 0,4.822163284671 -3.697732583268,7.7899047900526 -9.2343315803913,7.7899047900526 h -86.8178277821049 c -5.5321546069992,0 -9.2298871902677,-2.9677415053816 -9.2298871902677,-7.7899047900526 v -1.4977594718286 c 0,-11.5143037140657 15.1542592257206,-17.0931244173683 15.1542592257206,-35.2895686830495 v -140.064954761664 c 0,-17.0931244173682 -18.8431030287408,-19.3186527720217 -18.8431030287408,-30.8429563638667 v -2.2255283546534 c 0,-4.8277187723261 3.6888438030202,-8.5465622086841 9.2354426779228,-11.523192494314 l 54.6604430390296,-27.12377959824945 c 12.1987397931798,-5.94026073014662 16.9975700296992,0 16.9975700296992,7.80457127746226 v 7.4293536412333 c 8.8710026877449,-11.5100815434478 24.3797020258639,-17.83078206821922 44.3339025856351,-17.83078206821922 40.6172813443389,0 87.5322634945571,27.49399729558873 87.5322634945577,89.90767890614672 z m -73.1435504677168,37.5250969154822 c 0,-34.9240175953405 -6.6488076256843,-107.7431275839962 -31.7607229244976,-107.7431275839962 -10.3454291114217,0 -15.878694815952,9.6687707150246 -15.878694815952,24.521922509836 v 69.1091553325459 c 0,33.4395912938842 13.2965041538381,52.759355163437 26.9618926879783,52.759355163437 14.4076016848683,0 20.6775250524713,-13.0076187957703 20.6775250524713,-38.6473054218227 z" fill="white" id="path3" style="fill:#ed008c;fill-opacity:1;stroke-width:11.111"/>
  <path fill-rule="evenodd" clip-rule="evenodd" d="m 876.1192918753215,186.5210536315667 c 0,59.4403846175214 -42.1117075235746,95.8666060748147 -87.5378189822123,95.8666060748147 -13.6742773143883,0 -24.3930351962365,-2.6066348077968 -33.2495936160781,-7.8099045456111 v 36.4128882869209 c 0,18.1964442656812 16.9942367371066,23.7752649689838 16.9942367371066,35.2895686830495 v 1.4977594718286 c 0,4.822163284671 -3.6977325832684,7.7899047900526 -9.2354426779231,7.7899047900526 H 676.278401041765 c -5.5321546069991,0 -9.2354426779227,-2.9677415053816 -9.2354426779227,-7.7899047900526 v -1.4977594718286 c 0,-11.5143037140657 15.1598147133757,-17.0931244173683 15.1598147133757,-35.2895686830495 v -140.064954761664 c 0,-17.0931244173682 -18.8431030287408,-19.3186527720217 -18.8431030287408,-30.8429563638667 v -2.2255283546534 c 0,-4.8277187723261 3.6832883153651,-8.5465622086841 9.2298871902674,-11.523192494314 l 54.664887429154,-27.12377959824945 c 12.1998508907113,-5.94026073014662 16.9942367371062,0 16.9942367371062,7.80457127746226 v 7.4293536412333 C 753.1241284828738,102.9340752501914 768.6283834308693,96.61337472542 788.5814728931092,96.61337472542 c 40.6172813443389,0 87.5378189822123,27.4939972955887 87.5378189822123,89.90767890614669 z m -73.1491059553716,37.5250969154822 c 0,-34.9240175953405 -6.6432521380294,-107.7431275839962 -31.7607229244975,-107.7431275839962 -10.3454291114224,0 -15.8775837184213,9.6687707150246 -15.8775837184213,24.521922509836 v 69.1091553325459 c 0,33.4395912938842 13.2965041538382,52.759355163437 26.9618926879783,52.759355163437 14.4064905873371,0 20.6764139549405,-13.0076187957703 20.6764139549405,-38.6473054218227 z" fill="white" id="path4" style="fill:#ed008c;fill-opacity:1;stroke-width:11.111"/>
  <path fill-rule="evenodd" clip-rule="evenodd" d="m 892.5235358234508,270.850022944164 v -1.4844263014562 c 0,-11.5287479819692 15.1409260553484,-17.0931244173683 15.1409260553484,-35.3040129509529 v -59.8059357052303 c 0,-18.2164440212397 -15.1409260553484,-23.7808204566388 -15.1409260553484,-33.8106978692482 v -1.4933150817046 c 0,-4.4477234167138 3.6832883153651,-6.6921404293948 9.2343315803919,-9.2887753594123 L 964.9159843601911,98.4586855049549 c 11.0831978720256,-5.56926526453564 18.090890000233,1.11765300646324 18.090890000233,8.54656220868409 V 234.0615836917549 C 983.0068743604246,252.2724722253395 1000,257.8368486607386 1000,269.3655966427078 v 1.4844263014562 c 0,4.8366075525744 -3.687732705489,7.799904667832 -9.2343315803917,7.799904667832 h -89.0078010157655 c -5.5510432650268,0 -9.234331580392,-2.9632971152575 -9.234331580392,-7.799904667832 z m 6.648807625685,-229.97696694818171 C 899.1723434491358,17.83500423883708 918.0010022099728,0 946.0773257215746,0 c 28.068545828884,0 46.9016489798455,17.83500423883708 46.9016489798455,40.87305599598228 0,23.03805175714519 -18.8331031509615,41.23460713257948 -46.9016489798455,41.23460713257948 -28.0763235116018,0 -46.9049822724388,-18.19655537543427 -46.9049822724388,-41.23460713257949 z" fill="white" id="path5" style="fill:#ed008c;fill-opacity:1;stroke-width:11.111"/>
</svg>