<?xml version="1.0" encoding="UTF-8"?><svg id="Layer_2" xmlns="http://www.w3.org/2000/svg" width="800" height="190.62" viewBox="0 0 800 188"><g id="Layer_1-2"><path d="M0,3.57v181.36h36.6V38.18h17.24s26.91-1.21,26.91,23.29-23.9,23.89-23.9,23.89h-8.77v41.74l36.6,57.83h42.94l-51.11-74.15s42.04-3.63,42.04-49.3S86.8,3.57,44.46,3.57H0ZM535.05,88.4s16.02-12.47,16.02-36.09-17.17-44.94-53.72-44.94h-61.21v177.56h75.4s54.04-.61,54.04-49.45c0-28.35-11-39.21-30.53-47.09ZM505.56,154.02h-32.81V38.33h17.54s23.83-1.79,23.83,19-18.96,18.96-18.96,18.96h-10.92v31.17h21.31c5.59,0,23.39,2.71,23.39,23.19,0,20.48-23.38,23.37-23.38,23.37h0ZM765.82,0h34.18v184.93h-34.18V0h0ZM707,0h34.63v184.93h-34.63V0h0ZM575.88,76.6h35.08v62s1.22,20.88,20.87,20.88,19.36-20.88,19.36-20.88v-61.71h35.38v63.83s4.54,49.9-53.84,49.9-56.86-43.86-56.86-51.72v-62.31h0ZM343.29,0v83.86s-16.94-13-36.31-13-52.01,13.61-52.01,56.55,27.83,59.29,51.72,59.29,37.21-15.73,37.21-15.73v13.97h34.47V0h-35.08s0,0,0,0ZM316.67,156.44c-1.82,0-24.5.31-24.5-27.52s24.8-28.74,24.8-28.74c0,0,27.83.91,27.83,28.13s-26.32,28.13-28.13,28.13ZM186.01,70.85c58.68,0,56.26,57.17,56.26,57.17v9.07h-79.54c0,13,10.89,24.2,25.71,24.2s22.38-14.21,22.38-14.21l28.12,13.91c-13,19.67-30.54,27.52-50.2,27.52-61.1,0-62.31-50.81-62.31-57.16s.91-60.49,59.58-60.49h0ZM163.32,116.21h43.56s-1.81-20.56-21.47-20.56c-19.66,0-22.09,20.56-22.09,20.56Z" fill="#cc2729" stroke-width="0"/></g></svg>