<?xml version="1.0" encoding="UTF-8"?>
<svg id="Layer_1" data-name="Layer 1" xmlns="http://www.w3.org/2000/svg" viewBox="0 0 1006.7 296.63">
  <defs>
    <style>
      .cls-1 {
        fill: #b80a34;
      }

      .cls-2 {
        fill: #0e5994;
      }
    </style>
  </defs>
  <path class="cls-1" d="M236.77,14.79c17.25-4.74,34.67-9.01,51.89-13.96,1.62-.42,3.3-1.06,5.02-.74,17.32,4.04,34.41,9.22,51.87,12.66,1.31.28,2.64.59,3.93,1,1.33.29,2.68.62,4,1.01,3.79.94,7.62,1.76,11.35,2.95,20.39,4.86,40.64,10.3,60.98,15.38,20.11,5.14,40.32,9.92,60.39,15.2,7.76,1.91,15.49,4.02,23.35,5.43,1.32.31,2.66.64,3.98,1.01,1.31.31,2.65.65,3.96,1.02,16.03,3.96,32.02,8.06,48.02,12.14,3.05.66,6.21.35,9.32.4,133.3-.02,266.61.02,399.92-.02.03,9.45,0,18.91.01,28.36-136.99,0-273.99-.01-410.98.01-7.24-.09-14.01-3.06-21.08-4.27-1.32-.27-2.75-.18-3.88-1-4.08-.65-8.04-1.83-12.01-2.92-43.68-10.91-87.31-22.05-131-32.94-5.18-.97-10.15-3.11-15.45-3.36-.31-.23-.93-.69-1.24-.92-1.49-.09-3.09.07-4.38-.82-1.36-.22-2.72-.42-4-.93-1.36-.25-2.71-.5-3.99-1.01-24.73-5.99-49.32-12.63-74.06-18.56-21.73,5.42-43.2,12.03-64.91,17.58-2.33.85-4.73,1.44-7.13,2.03-9.05,2.83-18.51,4.03-27.42,7.39-37.62,9.73-74.98,20.45-112.49,30.57-3.63,1.11-7.29,2.14-11,2.95-3.17,1.38-6.63,1.8-9.96,2.58-17.48,4.52-34.8,9.59-52.27,14.11-2.36-9.31-5.08-18.53-7.51-27.82,26.27-7.06,52.44-14.52,78.72-21.56,6.79-2.14,13.68-3.94,20.63-5.41,42.18-11.43,84.32-23.01,126.46-34.6,3.61-1.1,7.28-2.08,10.96-2.94Z"/>
  <path class="cls-2" d="M376.21,129.17c7.17-3.24,15.59-3.14,23.07-1.04,4.01,2.01,7.65,4.61,11.25,7.28-.02.44-.05,1.32-.07,1.76-3.18,3.81-6.3,7.67-9.54,11.43-3.49-3.41-8.6-5.62-13.46-4.02-9,2.72-13.43,13.12-12.39,21.92.48,8.37,6.87,16.84,15.66,17.34,4.11.2,7.17-2.79,10.76-4.21,2.83,4.15,6.64,7.61,9.29,11.89-9.11,11.57-27.64,13.5-39.2,4.43-17.7-12.83-20.62-40.6-6.87-57.33,2.81-3.14,5.72-6.35,9.44-8.42.51-.26,1.54-.77,2.06-1.03Z"/>
  <path class="cls-2" d="M99.36,129c7.38-.53,14.79-.29,22.18-.17,4.18,11.09,8.76,22.01,13.03,33.06,1.31,2.87,2.43,5.83,3.2,8.9,1.48-3.58,2.65-7.28,4.17-10.84.55-1.72,1.24-3.4,1.97-5.05,3.27-8.73,7.03-17.27,10.17-26.05,7.39-.2,14.8-.28,22.18.07-.14,22.57-.05,45.15-.04,67.73-.09.96.07,2.94-1.41,2.86-5.85.31-11.71.03-17.57.1-.12-10.38,0-20.76-.05-31.14-4.41,10.23-8.39,20.65-12.32,31.07-4.65.13-9.3.14-13.94,0-4.01-10.12-7.88-20.31-12.05-30.37-.72,2.39-.44,4.91-.44,7.38.03,7.67-.05,15.33.03,23-5.62.11-11.24.12-16.86.06-1.28.23-2.36-.89-2.14-2.12-.1-22.83.11-45.67-.11-68.49Z"/>
  <path class="cls-2" d="M192.02,128.76c15.27-.06,30.55-.11,45.83.03.05,4.88.09,9.77-.03,14.65-8.83.33-17.72-.53-26.5.5.07,3.8.07,7.6.14,11.4,6.92,0,13.85.04,20.77-.02.09,5.26.1,10.52-.04,15.78-6.91-.06-13.82-.03-20.73-.02-.12,4.35-.13,8.7.03,13.06,8.68-.03,17.35,0,26.03-.03.11,5.16.04,10.32.08,15.47-15.2.07-30.4.1-45.6-.01.09-23.6.06-47.21.02-70.81Z"/>
  <path class="cls-2" d="M323.59,128.73c6.57.05,13.14-.23,19.7.21-.26,23.07.06,46.15-.16,69.22-.14.29-.44.86-.59,1.15-6.26.74-12.64.13-18.94.29-.05-23.62-.03-47.24-.01-70.87Z"/>
  <path class="cls-2" d="M490.47,128.72c6.79.04,13.59-.1,20.38.04,2.04-.21,2.47,2.16,3.21,3.55,3.92,8.39,8.09,16.66,12.2,24.96,1.47,2.91,2.67,5.98,4.65,8.61.25-12.38.07-24.76.09-37.15,6.16-.03,12.32-.04,18.48.02.01,23.6-.07,47.19.04,70.79-7.18.15-14.36.15-21.54,0-6.02-12.49-12.5-24.76-18.42-37.29-.88,12.4-.18,24.88-.38,37.32-6.24.11-12.48.04-18.72.06,0-23.64-.03-47.28.01-70.91Z"/>
  <path class="cls-2" d="M599.99,128.8c15.32-.16,30.65-.11,45.98-.03-.04,4.89.04,9.79-.07,14.68-8.82.39-17.75-.69-26.49.59.12,3.74.09,7.49.04,11.24,6.93.11,13.86.11,20.8,0,.25,5.27.17,10.55,0,15.83-6.93-.13-13.86.09-20.79-.15.08,9.53,0,19.06.05,28.59-6.52.12-13.04.15-19.55-.03.11-23.57.05-47.15.03-70.72Z"/>
  <path class="cls-2" d="M722.11,128.82c7.33-.18,14.68-.14,22.02-.03,5.09,13.68,10.98,27.06,15.6,40.9.26.15.78.44,1.04.58.46-2.92,1.79-5.58,2.87-8.3,4.41-11.06,8.85-22.1,13.16-33.2,7.17-.09,14.34-.09,21.52,0-.01,23.59-.09,47.18.04,70.77-6.26.15-12.52.13-18.77,0-.09-10.07.15-20.15-.11-30.22-3.83,8.28-6.82,16.95-10.27,25.41-.85,1.51-.83,3.82-2.35,4.79-4.45.31-8.91-.01-13.36.14-2.5-6.25-4.72-12.61-7.53-18.73-1.6-4.16-3.12-8.35-4.75-12.48-.21,10.36-.05,20.73-.07,31.1-6.36.11-12.72.14-19.07-.02.11-23.57.06-47.14.03-70.71Z"/>
  <path class="cls-2" d="M817.3,128.71c6.36.03,12.72-.06,19.08.06.02,23.58-.11,47.16.06,70.74-6.38.25-12.77.06-19.16.12-.03-23.64-.06-47.28.02-70.92Z"/>
  <path class="cls-2" d="M855.32,128.71c6.35,0,12.71.01,19.07,0,.02,17.48.01,34.96,0,52.43,8.73-.04,17.46,0,26.19-.02.53,6.13.22,12.28.27,18.43-15.18.17-30.36.05-45.54.06-.03-23.63-.03-47.26.01-70.9Z"/>
  <path class="cls-2" d="M894.11,128.71c5.91.07,11.84-.12,17.76.06,1.92-.33,2.35,1.79,3.14,3.05,3.49,7.28,7.12,14.5,10.98,21.59,1.28.13,1.47-1.37,2.06-2.19,3.69-7.63,7.98-14.95,11.92-22.45,6.26-.32,12.57.44,18.79-.5-1.28,4.56-4.31,8.35-6.13,12.7-4.45,8.38-8.93,16.74-13.4,25.11-1.16,2.43-3.15,4.66-3.14,7.48-.08,8.69.01,17.38-.03,26.07-6.34-.03-12.67.07-19-.07.05-7.97-.02-15.94.04-23.91-.08-1.5.12-3.09-.64-4.43-7.41-14.19-14.87-28.36-22.35-42.51Z"/>
  <path class="cls-2" d="M301.94,180.57c-1.38-3.04-1.9-6.47-3.95-9.17,1.86-2.03,4.37-3.34,6.08-5.51,4.47-4.94,4.85-11.96,4.42-18.27-.18-5.45-2.76-10.53-6.52-14.39-3.88-2.61-8.37-4.51-13.12-4.45-11.63-.15-23.27-.04-34.91-.05,0,23.62,0,47.25,0,70.87,6.37.04,12.74.06,19.1-.02.08-7.81-.15-15.62.13-23.42,2.81.03,5.64.05,8.46.12,2.83,7.85,5.76,15.67,8.85,23.42,6.08-.23,12.18.14,18.26-.24-2.31-6.28-4.94-12.45-6.8-18.89ZM284.93,157.92c-3.88.98-7.94.4-11.89.52.08-4.73-.22-9.47.23-14.18,3.82.31,7.76-.4,11.49.61,5.46,1.92,5.77,11.06.17,13.05Z"/>
  <path class="cls-2" d="M458.26,128.82c-6.53-.08-13.08-.32-19.59.08-3.24,8.14-5.76,16.67-8.72,24.96-4.86,15.3-10.25,30.44-15,45.78,6.01-.02,12.02,0,18.03-.02,1.44-4.79,3.17-9.48,4.73-14.22,6.63-.08,13.27-.13,19.9.03,1.35,4.77,3.12,9.4,4.6,14.14,6.53.11,13.05.07,19.58.01-7.87-23.58-15.67-47.18-23.53-70.76ZM442.69,170.19c1.14-5.1,3.19-9.93,4.75-14.9,2.22,4.76,3.56,9.9,5.23,14.88-3.33,0-6.66.01-9.98.02Z"/>
  <path class="cls-2" d="M711.29,189.57c-.7-.84-1.05-1.81-1.05-2.92-6.49-19.32-13.39-38.5-19.77-57.86-5.94-.12-11.88-.12-17.81-.05-2.17-.32-2.38,2.17-2.87,3.62-7.28,22.5-15.14,44.81-22.65,67.23,6.26,0,12.54.23,18.8-.16.23-1.32.53-2.63,1.01-3.89.82-2.66,2.01-5.2,2.57-7.94.34-.56,1.03-1.67,1.37-2.23,6.29-.04,12.58-.08,18.87.03,1.6,4.74,3.27,9.47,4.84,14.23,6.67-.37,13.54.79,20.09-.67-1.78-2.85-2.54-6.18-3.4-9.39ZM674.96,170.17c1.47-4.88,3.09-9.75,4.8-14.54,2.46,4.48,3.29,9.81,5.46,14.51-3.43.04-6.85.06-10.26.03Z"/>
  <path class="cls-2" d="M66.18,128.66c-6.15.21-12.31-.14-18.45.14-.26.18-.76.55-1.01.73-7.68,23.35-15.84,46.57-23.8,69.83,6.14.23,12.58.78,18.56-.18,1.96-4.51,2.99-9.38,5.02-13.87,6.43.1,12.86-.06,19.28.1,1.07,4.84,3.24,9.34,4.48,14.14,6.78.09,13.57.22,20.35-.1-8.7-23.39-16.1-47.27-24.43-70.79ZM51.03,170.19c1.4-4.92,3.45-9.63,4.75-14.57,2.62,4.41,3.17,9.76,4.95,14.56-3.24,0-6.47,0-9.7.01Z"/>
  <path class="cls-2" d="M958.79,217.59c-.25-1.22.43-3.75-1.49-3.81-4.5-.41-9.03-.03-13.53-.15-306.92.02-613.84-.04-920.75.03.06,27.65.03,55.31.01,82.96,311.91.02,623.82,0,935.73.01.01-26.35-.03-52.69.03-79.04ZM118.72,277.78c-5.35-.02-10.69.05-16.03.01-1.79.39-3.33-1.35-2.99-3.08.13-13.92-.27-27.85.22-41.76,6.29-.12,12.58-.02,18.88-.07.09,14.96.24,29.94-.08,44.9ZM216.77,277.79c-5.99.01-11.98,0-17.97-.03-6.75-7.31-13.25-14.87-20.08-22.08l-.41.36c-.28,7.05-.14,14.13-.03,21.19-6.01,1.06-12.17.47-18.24.42.01-14.92.03-29.83-.01-44.75,7.12.13,14.28-.29,21.39.18,6.78,7.11,12.95,14.8,19.9,21.75.19-7.34-.07-14.68.14-22.01,6.13.3,12.29-.31,18.4.38-.1,13.82-.01,27.64-.04,41.47.35,1.75-1.22,3.55-3.05,3.12ZM310.88,273.95c-9.19,5.87-20.7,5.31-31.16,5.2-6.95-.35-14.36-1.11-20.22-5.22-3.2-2.14-4.35-6.07-4.67-9.71,7.4.02,14.8.04,22.2-.01.48.94.95,1.89,1.43,2.85,4.72,1.91,10.24,1.84,14.96-.07.02-1.57,0-3.13-.09-4.68-7.36-1.98-15.07-2.54-22.62-3.53-1.7-.45-3.44-.74-5.18-.89-3.76-1.22-7.8-3.26-9.15-7.27-2.98-5.96.52-13.43,6.39-16.02,6.85-3.11,14.58-3.3,21.97-3.3,7.54.23,15.43.59,22.27,4.13,3.99,2.11,6.49,6.19,7.27,10.56-7.19.06-14.39.04-21.58.02-1.7-4.87-7.72-4.9-11.99-4.66-2.39.12-6.19,1.3-5.34,4.4,1.06,2.02,3.51,1.47,5.38,1.73,9.78,2.21,20.29,1.58,29.61,5.7,7.78,3.92,7.68,16.29.52,20.77ZM410.56,261.63c.48,8.38-6.86,14.79-14.62,16.1-7.94,1.82-16.17,1.69-24.25,1.24-5.17-.51-10.48-1.34-15.04-3.95-4.35-2.5-7.47-7.23-7.45-12.31-.11-9.93.03-19.86-.07-29.8,6.35.05,12.71-.22,19.05.17-.23,9.21-.16,18.43-.07,27.64-.09,2.84,2.29,5.04,4.79,5.92,4.4,1.42,9.24,1.42,13.66.06,2.14-.86,4.83-2.27,4.8-4.94.3-9.55.1-19.13.08-28.69,6.38-.37,12.78-.1,19.17-.17-.08,9.58.04,19.15-.05,28.73ZM487.83,277.79c-3.02-4.93-6-9.88-8.93-14.87-4.25-.02-8.5-.02-12.74,0-.06,4.96.12,9.92-.13,14.87-6.25.02-12.5-.1-18.75.08-.29-14.98-.01-29.97-.14-44.96,12.51-.03,25.03-.03,37.54,0,6.53.23,13.76,1.32,18.55,6.2,4.54,4.26,4.06,12.38-.72,16.27-2.23,1.73-4.87,2.8-7.37,4.05,3.11,4.59,5.79,9.45,8.74,14.14.73,1.12,1.3,2.35,1.46,3.71.33.11.99.34,1.32.46-6.28.09-12.56.02-18.83.05ZM581.6,277.07c-.67-1.58-.32-4.79-2.75-4.56-6.53.11-13.12-.47-19.61.41-.41,1.43-.82,2.86-1.18,4.3-6.63,1.06-13.49.64-20.17.24,3.62-7.16,6.73-14.55,10.16-21.78,3.11-7.63,6.64-15.13,10.15-22.55,7.87-.41,15.83-.41,23.71.04,3.86,9.14,8,18.19,12.11,27.23,2.23,5.91,5.52,11.36,7.74,17.28-6.7-.18-13.61.92-20.16-.61ZM694.6,277.8c-6.99-.4-14.13.78-21-.68-1.68-2.68-4.09-4.74-6.31-6.93-2.73-2.65-4.8-5.87-7.53-8.52-2.27-2.18-4.51-4.41-6.28-7.02-.29,7.71-.02,15.42-.17,23.13-6.01,0-12.01.01-18.01,0-.11-14.92.11-29.85-.11-44.78,6.89-.19,13.79-.13,20.69-.07,1.27-.24,1.98,1.01,2.76,1.76,5.78,6.81,11.59,13.61,17.68,20.15.34-7.24.15-14.51.11-21.76,6.06-.39,12.14-.09,18.21-.2-.01,14.97.07,29.95-.04,44.92ZM749.39,262.15c4.09,8.76,19.91,7.89,22.33-1.88,6.88-.12,13.77.08,20.66-.13.07,6.99-4.83,13.44-11.21,16-8.32,3.44-17.54,3.27-26.37,2.96-7.4-.51-15.39-2.13-20.8-7.6-6.77-7.38-7.33-19.03-3.28-27.86,4.33-8.41,14.2-11.63,23.07-12.11,9.98-.46,20.79-.82,29.76,4.29,5.16,2.87,8.11,8.24,9.5,13.81-1.34.72-2.76,1.27-4.3,1.11-5.63-.04-11.27,0-16.89-.06-.92-2.82-2.35-5.69-5.14-7.07-4.34-1.96-9.34-1.3-13.6.53-1.16,1.22-2.36,2.41-3.54,3.61-1.39,4.71-1.65,9.66-.19,14.4ZM881.15,277.79c-17.62-.01-35.24-.01-52.86.01-.24-14.94.17-29.88-.21-44.81,17.76-.21,35.52-.05,53.28-.09-.22,3.64-.19,7.29-.19,10.93-11.43-.02-22.85-.04-34.27,0,.02,2.16.06,4.33.13,6.5,10.63-.1,21.27,0,31.91-.06-.11,3.37-.13,6.74.14,10.1-10.62-.12-21.25.07-31.86-.1-.42,2.24-1.01,4.55,0,6.73,11.38-.23,22.77-.12,34.15-.06-.23,3.6-.2,7.22-.22,10.84Z"/>
  <path class="cls-2" d="M466.21,242.81c5.2.17,10.43-.21,15.62.25,2.35.12,5.01,1.97,4.65,4.58-.04,1.42-1.14,2.43-1.87,3.54-5.9,2.21-12.29.85-18.41,1.26-.07-3.21-.07-6.42.01-9.63Z"/>
  <path class="cls-2" d="M569.51,246.92c.19-.01.57-.03.75-.04,1.93,4.81,3.67,9.71,5.5,14.58-3.95.1-7.89.1-11.83-.03,1.97-4.8,3.66-9.7,5.58-14.51Z"/>
  <path class="cls-2" d="M987.4,261.52c-8.29.73-15.6,7.81-16.21,16.18-.88,8.24,5.09,16.45,13.11,18.37,5.62,1.14,12.01.48,16.5-3.39,3.58-3.34,6.12-8.07,5.86-13.07.75-10.17-9.18-19.35-19.26-18.09ZM994.87,292.94c-5.66,1.82-12.78,1.21-16.63-3.81-6.82-7.48-3.43-21.51,6.64-24.11,7.28-2.67,15.55,2.35,17.57,9.58,2.38,7-1.11,14.91-7.58,18.34Z"/>
  <path class="cls-2" d="M992.58,280.72c1.89-.68,3.43-1.99,4.84-3.41-.08-1.8-.11-3.61-.1-5.4-3.78-4.59-10.11-2.67-15.23-2.99.15,6.76-.19,13.55.16,20.3.95,1.08,1.99,1.12,3.14.14.44-2.82.16-5.69.13-8.52.85.04,2.55.12,3.41.16,2.59,3.11,3.5,9.81,8.9,8.23-1.65-2.9-3.62-5.6-5.25-8.51ZM985.6,278.16c-.02-2.23-.04-4.45-.07-6.67,3.07.17,9.26-.62,8.6,4.21-1.34,3.36-5.72,2.03-8.53,2.46Z"/>
</svg>