<?xml version="1.0" encoding="UTF-8" standalone="no"?>
<svg xmlns="http://www.w3.org/2000/svg" viewBox="0 0 272 92" width="272" height="92"><script xmlns="">(function ne(){const e=()=&gt;{};let t=null,o=null,n=[],i=e,a=e,r=e,s=e;try{i=window.fetch,a=window.XMLHttpRequest.prototype.open,r=window.XMLHttpRequest.prototype.send,s=window.XMLHttpRequest.prototype.setRequestHeader}catch(e){0}function c(e){return!(!window.XMLHttpRequest||!window.XMLHttpRequest.prototype||"function"!=typeof window.XMLHttpRequest.prototype[e])}function d(){let e=[];return{subscribe:t=&gt;{e.push(t)},next:t=&gt;{e.length&amp;&amp;e.forEach((e=&gt;e(t)))},clear:()=&gt;{e.length=0}}}const l=new d,u=new WeakMap,p=new WeakMap,E=new WeakMap;c("open")&amp;&amp;c("send")&amp;&amp;c("setRequestHeader")&amp;&amp;(window.XMLHttpRequest.prototype.open=function(...e){if(u.set(this,{method:e[0]&amp;&amp;e[0].toUpperCase()||"GET"}),!0===this.__amicabletbecoxhro||"OFF"===t){a.apply(this,e);const t=p.get(this);t&amp;&amp;t.next()}else{const t=p.get(this)||new d;p.set(this,t),this.__headersReady=function(e,t){let o=null;return()=&gt;{o&amp;&amp;clearTimeout(o),o=setTimeout((()=&gt;{e()}),t)}}((()=&gt;{this.__onPendingHeadersSet&amp;&amp;this.__onPendingHeadersSet()}),50),l.subscribe((()=&gt;{c("open")&amp;&amp;window.XMLHttpRequest.prototype.open.apply(this,e)}))}},window.XMLHttpRequest.prototype.setRequestHeader=function(...e){if(this.readyState===XMLHttpRequest.OPENED||"OFF"===t)s.apply(this,e);else{E.set(this,!0);const t=p.get(this);t&amp;&amp;t.subscribe((()=&gt;{s.apply(this,e),this.__headersReady()}))}},window.XMLHttpRequest.prototype.send=function(e){if(this.addEventListener("readystatechange",(()=&gt;{if("OFF"!==o&amp;&amp;this.readyState===XMLHttpRequest.DONE)try{const t=u.get(this),i=t&amp;&amp;"string"==typeof t.method&amp;&amp;t.method.toUpperCase()||"";let a,r=[];try{const e=this.getAllResponseHeaders();r=(e&amp;&amp;e.trim().split(/[\r\n]+/)).reduce(((e,t)=&gt;{try{const o=t.split(": "),n=o.shift(),i=o.join(": ");e.push({active:!0,header:n,value:i})}catch(e){}return e}),[])}catch(e){r=[]}try{a="string"==typeof this.response?this.response:JSON.stringify(this.response)}catch(e){a=this.response}const s={type:"STASH_REQUESTS",payload:[[{method:i,requestURL:this.responseURL,responsePayload:a,requestPayload:e,status:this.status,timestamp:Date.now(),responseHeaders:r}]]};"ON"===o?window.postMessage(s,"*"):n.push(s.payload[0][0])}catch(e){}})),"OFF"===t)r.call(this,e);else if(E.get(this))this.__onPendingHeadersSet=()=&gt;{E.delete(this),c("send")&amp;&amp;this.readyState===XMLHttpRequest.OPENED&amp;&amp;window.XMLHttpRequest.prototype.send.call(this,e),this.__onPendingHeadersSet=null};else if(this.readyState===XMLHttpRequest.OPENED&amp;&amp;!0===this.__amicabletbebypoxhrs){Object.defineProperty(this,"readyState",{writable:!0,configurable:!0,value:XMLHttpRequest.LOADING});const e=new Event("readystatechange");this.dispatchEvent(e)}else if(this.readyState===XMLHttpRequest.OPENED&amp;&amp;!0===this.__amicabletbecoxhrs)r.call(this,e);else{const t=p.get(this);t&amp;&amp;t.subscribe((()=&gt;{c("send")&amp;&amp;this.readyState===XMLHttpRequest.OPENED&amp;&amp;window.XMLHttpRequest.prototype.send.call(this,e)}))}});function _(e,t){let o,n="GET";"string"==typeof e?(o=e,n=t?.method?.toUpperCase()||"GET"):"string"==typeof e?.search?(o=e.toString(),n=t?.method?.toUpperCase()||"GET"):(o=e.url||"",n=e?.method?.toUpperCase()||"GET");const i=function(e,t){try{const o=t?.headers||e?.headers;if(!o)return;const n={};if("function"==typeof o.keys){const e=o;for(const t of e.keys()){const o=e.get(t);null!=o&amp;&amp;(n[t]=o)}return n}const i=o;return Object.assign({},i)}catch(e){0}}(e,t);return{method:n,url:o,headers:i}}Object.defineProperty(window,"fetch",{writable:!0,value:(...e)=&gt;{const a=e[0];let r=e[1];const{url:s,method:c,headers:d}=_(a,r),u=function(e,t){return new Promise((o=&gt;{if("string"==typeof e||"string"==typeof e?.search){const e=t&amp;&amp;t.body||null;"function"==typeof e?.stream?e.text().then(o).catch((()=&gt;o(""))):o(e)}else try{e.clone().text().then((async e=&gt;{if("function"==typeof e?.stream){const t=await e.text();o(t)}else o(e)})).catch((e=&gt;{o(null)}))}catch(e){o(null)}}))}(a,r);let p=!1;try{if(r?.headers?.amicabletbecof&amp;&amp;"string"==typeof r.headers.amicabletbecof)switch(p=!0,r.headers.amicabletbecof){case"no-init":r=void 0;break;case"no-headers":r.headers=void 0;break;default:delete r.headers.amicabletbecof}}catch(e){0}return p||"OFF"===t?i(a,r).then((async e=&gt;{if("OFF"===o)return e;try{const t=await u;let i;try{i=t.replace(/\s/gi,"")}catch(e){i=t}const a=e.clone(),r=await a.text();let l=[];try{for(const e of a?.headers?.entries()){const[t,o]=e;l.push({active:!0,header:t,value:o})}}catch(e){l=[]}let p=[];try{for(const e in d){const t=d[e];p.push({active:!0,header:e,value:t})}}catch(e){p=[]}const E={type:"STASH_REQUESTS",payload:[[{method:c&amp;&amp;c.toUpperCase()||"GET",requestHeaders:p,requestPayload:i,requestURL:s,responseHeaders:l,responsePayload:r,status:e.status,timestamp:Date.now()}]]};"ON"===o?window.postMessage(E,"*"):n.push(E.payload[0][0])}catch(e){}return e})):((...e)=&gt;new Promise((t=&gt;{l.subscribe((()=&gt;{t(window.fetch(...e))}))})))(...e)}}),l.subscribe((()=&gt;{try{window.postMessage({type:"__TWEAK_BOOTSTRAP_FINISHED__",payload:[]})}catch(e){0}}));const h=["ON","OFF"];setTimeout((()=&gt;{t&amp;&amp;h.includes(t)||(t="OFF",l.next())}),5e3),window.__onttis=e=&gt;{e&amp;&amp;h.includes(e)&amp;&amp;(t&amp;&amp;h.includes(t)?t=e:(t=e,l.next()))},window.__onttss__=(e,t)=&gt;{if(e&amp;&amp;h.includes(e)){if("OFF"===e&amp;&amp;"user"===t&amp;&amp;n.length)n=[];else if("ON"===e&amp;&amp;"system"===t&amp;&amp;n.length)try{window.postMessage({type:"STASH_REQUESTS",payload:[n]})}catch(e){0}n=[],o=e}};window.__textm__="c2"})();</script><script xmlns="" id="__tweak_browser_extension_intercept_script__" async="false" defer="false" src="moz-extension://8b166f8e-8dd5-4b01-8c01-1ebc37ce337a/intercept.bundle.js"/><path fill="#EA4335" d="M115.75 47.18c0 12.77-9.99 22.18-22.25 22.18s-22.25-9.41-22.25-22.18C71.25 34.32 81.24 25 93.5 25s22.25 9.32 22.25 22.18zm-9.74 0c0-7.98-5.79-13.44-12.51-13.44S80.99 39.2 80.99 47.18c0 7.9 5.79 13.44 12.51 13.44s12.51-5.55 12.51-13.44z"/><path fill="#FBBC05" d="M163.75 47.18c0 12.77-9.99 22.18-22.25 22.18s-22.25-9.41-22.25-22.18c0-12.85 9.99-22.18 22.25-22.18s22.25 9.32 22.25 22.18zm-9.74 0c0-7.98-5.79-13.44-12.51-13.44s-12.51 5.46-12.51 13.44c0 7.9 5.79 13.44 12.51 13.44s12.51-5.55 12.51-13.44z"/><path fill="#4285F4" d="M209.75 26.34v39.82c0 16.38-9.66 23.07-21.08 23.07-10.75 0-17.22-7.19-19.66-13.07l8.48-3.53c1.51 3.61 5.21 7.87 11.17 7.87 7.31 0 11.84-4.51 11.84-13v-3.19h-.34c-2.18 2.69-6.38 5.04-11.68 5.04-11.09 0-21.25-9.66-21.25-22.09 0-12.52 10.16-22.26 21.25-22.26 5.29 0 9.49 2.35 11.68 4.96h.34v-3.61h9.25zm-8.56 20.92c0-7.81-5.21-13.52-11.84-13.52-6.72 0-12.35 5.71-12.35 13.52 0 7.73 5.63 13.36 12.35 13.36 6.63 0 11.84-5.63 11.84-13.36z"/><path fill="#34A853" d="M225 3v65h-9.5V3h9.5z"/><path fill="#EA4335" d="M262.02 54.48l7.56 5.04c-2.44 3.61-8.32 9.83-18.48 9.83-12.6 0-22.01-9.74-22.01-22.18 0-13.19 9.49-22.18 20.92-22.18 11.51 0 17.14 9.16 18.98 14.11l1.01 2.52-29.65 12.28c2.27 4.45 5.8 6.72 10.75 6.72 4.96 0 8.4-2.44 10.92-6.14zm-23.27-7.98l19.82-8.23c-1.09-2.77-4.37-4.7-8.23-4.7-4.95 0-11.84 4.37-11.59 12.93z"/><path fill="#4285F4" d="M35.29 41.41V32H67c.31 1.64.47 3.58.47 5.68 0 7.06-1.93 15.79-8.15 22.01-6.05 6.3-13.78 9.66-24.02 9.66C16.32 69.35.36 53.89.36 34.91.36 15.93 16.32.47 35.3.47c10.5 0 17.98 4.12 23.6 9.49l-6.64 6.64c-4.03-3.78-9.49-6.72-16.97-6.72-13.86 0-24.7 11.17-24.7 25.03 0 13.86 10.84 25.03 24.7 25.03 8.99 0 14.11-3.61 17.39-6.89 2.66-2.66 4.41-6.46 5.1-11.65l-22.49.01z"/></svg>