<?xml version="1.0" encoding="UTF-8"?>
<svg xmlns="http://www.w3.org/2000/svg" version="1.1" viewBox="0 0 817.52 426">
  <!-- Generator: Adobe Illustrator 29.8.2, SVG Export Plug-In . SVG Version: 2.1.1 Build 3)  -->
  <defs>
    <style>
      .st0 {
        fill: #231f20;
      }

      .st1 {
        fill: #006f51;
      }
    </style>
  </defs>
  <g id="Layer_1">
    <path class="st1" d="M186,198.34l.14,79.4h32.22v-79.4c0-8.63,8.34-15.54,15.25-15.54,6.33,0,14.67,6.04,14.67,15.54v79.4h30.5v-94.94c0-18.99-13.23-32.8-30.5-32.8h-93.21c-17.84,0-29.92,13.81-29.92,28.77v98.96h32.22v-79.4c.58-10.93,6.9-15.54,14.38-15.54,5.75,0,14.82,5.75,14.24,15.54Z"/>
    <path class="st1" d="M399.03,150.01v32.8h-60.7c-15.54,0-21.58,6.04-21.58,15.54v31.36c0,10.93,6.9,14.1,11.8,14.1h33.08c6.9,0,8.63-4.6,8.63-6.33s-.86-7.77-8.34-7.77h-19.28v-31.33l31.07-.03c12.08,0,25.32,8.63,25.32,20.71v29.92c0,15.25-13.23,28.77-29.34,28.77h-48.91c-17.84,0-35.67-10.93-35.67-28.77v-66.17c0-21.58,13.23-32.8,29.92-32.8h84.01Z"/>
    <path class="st1" d="M656.8,277.73v-32.8h-60.13c-15.54,0-21.58-6.04-21.58-15.54v-31.36c0-10.93,6.9-14.1,11.8-15.25h33.08c6.9,1.15,8.63,5.75,8.63,7.48s-.86,7.77-8.34,8.05h-38.26v31.04l50.06.03c12.08,0,25.32-8.63,24.74-20.71v-29.92c.58-15.25-12.66-28.77-28.77-28.77h-48.91c-17.84,0-35.67,10.93-35.67,28.77v66.17c0,21.58,13.23,32.8,29.92,32.8h83.43Z"/>
    <path class="st1" d="M470.6,282.95c-4.32-.55-11.72-5.21-11.72-16.71s-.39-29.75-10.36-38.55c-14.67-12.95-14.1-24.16-14.1-39.7,0-18.99,16.69-35.1,36.82-35.1,21.58,0,38.84,14.38,38.84,34.52,0,13.25-3.83,29.88-14.96,39.7-9.78,8.63-10.36,26.76-10.36,40.28,0,12.1-9.28,15.46-12.66,15.56h0c36.05,0,64.34-29.22,64.41-65.27.04-20.49-13.77-48.11-20.88-58.78,0,0-44.39-54.92-44.39-95.2,0,40.09-42.41,95.16-42.41,95.16-6.49,8.98-22.89,38.33-22.86,58.81.06,36.05,28.58,65.27,64.62,65.27h0Z"/>
    <path class="st1" d="M672.1,261.28c0-9.07,7.41-16.49,16.57-16.49s16.49,7.41,16.49,16.49-7.37,16.57-16.49,16.57-16.57-7.41-16.57-16.57ZM702.55,261.28c0-8.03-5.84-14.31-13.87-14.31s-13.96,6.28-13.96,14.31,5.89,14.39,13.96,14.39,13.87-6.28,13.87-14.39ZM696.92,270.52h-2.71l-5.28-8.5h-4.14v8.5h-2.27v-18.45h8.07c4.89,0,6.54,1.83,6.54,4.88,0,3.62-2.53,4.97-5.8,5.06l5.58,8.5ZM688.24,260.23c2.62,0,6.46.43,6.46-3.32,0-2.88-2.36-3.23-4.62-3.23h-5.28v6.54h3.45Z"/>
  </g>
  <g id="Layer_2">
    <g>
      <path class="st0" d="M287.07-16l-.84,2.54h-1.08l2.76-8.08h1.25l2.76,8.08h-1.12l-.86-2.54h-2.87ZM289.73-16.81l-.8-2.33c-.18-.53-.3-1.01-.42-1.48h-.02c-.12.47-.24.97-.41,1.46l-.79,2.34h2.45Z"/>
      <path class="st0" d="M293.03-17.45c0-.68-.01-1.27-.05-1.81h.92l.05,1.15h.04c.26-.78.91-1.27,1.62-1.27.11,0,.19.01.29.02v1c-.11-.02-.22-.02-.36-.02-.74,0-1.27.55-1.42,1.34-.02.14-.04.32-.04.49v3.09h-1.06v-3.99Z"/>
      <path class="st0" d="M298.52-20.65v1.39h1.51v.8h-1.51v3.13c0,.72.2,1.13.79,1.13.29,0,.46-.02.61-.07l.05.8c-.2.07-.53.14-.94.14-.49,0-.89-.17-1.14-.44-.29-.32-.41-.84-.41-1.52v-3.17h-.9v-.8h.9v-1.08l1.03-.31Z"/>
      <path class="st0" d="M301.22-21.97h1.04v3.65h.02c.37-.65,1.04-1.06,1.98-1.06,1.45,0,2.46,1.2,2.46,2.95,0,2.07-1.32,3.11-2.61,3.11-.84,0-1.51-.32-1.96-1.08h-.02l-.06.95h-.9c.02-.4.05-.98.05-1.5v-7.02ZM302.26-15.78c0,.13.01.26.05.38.19.73.82,1.24,1.58,1.24,1.12,0,1.76-.9,1.76-2.23,0-1.16-.6-2.16-1.74-2.16-.71,0-1.38.5-1.6,1.3-.04.13-.06.28-.06.44v1.03Z"/>
      <path class="st0" d="M313.3-16.4c0,2.15-1.5,3.08-2.89,3.08-1.56,0-2.78-1.15-2.78-2.99,0-1.93,1.28-3.07,2.88-3.07s2.79,1.21,2.79,2.97ZM308.71-16.34c0,1.27.72,2.23,1.75,2.23s1.76-.95,1.76-2.25c0-.98-.49-2.22-1.74-2.22s-1.77,1.15-1.77,2.24Z"/>
      <path class="st0" d="M314.96-19.26l.83,1.25c.23.32.41.61.6.94h.02c.19-.34.38-.64.59-.95l.8-1.24h1.15l-1.98,2.81,2.03,3h-1.19l-.86-1.31c-.23-.34-.42-.66-.62-1.01h-.02c-.19.35-.38.66-.61,1.01l-.84,1.31h-1.16l2.06-2.96-1.97-2.84h1.18Z"/>
      <path class="st0" d="M322.57-17.45c0-.68-.01-1.27-.05-1.81h.92l.05,1.15h.04c.26-.78.91-1.27,1.62-1.27.11,0,.19.01.29.02v1c-.11-.02-.22-.02-.36-.02-.74,0-1.27.55-1.42,1.34-.02.14-.04.32-.04.49v3.09h-1.06v-3.99Z"/>
      <path class="st0" d="M326.96-16.16c.02,1.43.92,2.01,1.99,2.01.76,0,1.22-.13,1.61-.3l.19.76c-.37.17-1.02.37-1.94.37-1.79,0-2.85-1.19-2.85-2.94s1.03-3.12,2.72-3.12c1.91,0,2.4,1.66,2.4,2.72,0,.22-.01.37-.04.49h-4.08ZM330.05-16.92c.01-.66-.28-1.7-1.46-1.7-1.08,0-1.54.97-1.62,1.7h3.08Z"/>
      <path class="st0" d="M332.38-17.36c0-.74-.02-1.34-.05-1.89h.94l.06,1h.02c.42-.71,1.12-1.12,2.06-1.12,1.42,0,2.47,1.19,2.47,2.94,0,2.09-1.28,3.12-2.65,3.12-.77,0-1.44-.34-1.79-.91h-.02v3.15h-1.04v-6.28ZM333.42-15.82c0,.16.01.3.05.43.19.73.83,1.24,1.58,1.24,1.12,0,1.76-.91,1.76-2.24,0-1.15-.61-2.15-1.73-2.15-.72,0-1.4.5-1.6,1.3-.04.13-.07.29-.07.42v1.01Z"/>
      <path class="st0" d="M339.21-17.45c0-.68-.01-1.27-.05-1.81h.92l.05,1.15h.04c.26-.78.91-1.27,1.62-1.27.11,0,.19.01.29.02v1c-.11-.02-.22-.02-.36-.02-.74,0-1.27.55-1.42,1.34-.02.14-.04.32-.04.49v3.09h-1.06v-3.99Z"/>
      <path class="st0" d="M343.6-16.16c.02,1.43.92,2.01,1.99,2.01.76,0,1.22-.13,1.61-.3l.19.76c-.37.17-1.02.37-1.94.37-1.79,0-2.85-1.19-2.85-2.94s1.03-3.12,2.72-3.12c1.91,0,2.4,1.66,2.4,2.72,0,.22-.01.37-.04.49h-4.08ZM346.7-16.92c.01-.66-.28-1.7-1.46-1.7-1.08,0-1.54.97-1.62,1.7h3.08Z"/>
      <path class="st0" d="M348.88-14.52c.32.19.88.41,1.4.41.76,0,1.12-.37,1.12-.86s-.3-.77-1.07-1.06c-1.06-.38-1.55-.95-1.55-1.64,0-.94.77-1.7,2-1.7.59,0,1.1.16,1.41.36l-.25.77c-.23-.14-.65-.35-1.19-.35-.62,0-.96.36-.96.79,0,.48.34.7,1.09,1,1,.37,1.52.88,1.52,1.74,0,1.03-.8,1.75-2.16,1.75-.64,0-1.22-.17-1.63-.41l.25-.79Z"/>
      <path class="st0" d="M354.37-16.16c.02,1.43.92,2.01,1.99,2.01.76,0,1.22-.13,1.61-.3l.19.76c-.37.17-1.02.37-1.94.37-1.79,0-2.85-1.19-2.85-2.94s1.03-3.12,2.72-3.12c1.91,0,2.4,1.66,2.4,2.72,0,.22-.01.37-.04.49h-4.08ZM357.46-16.92c.01-.66-.28-1.7-1.46-1.7-1.08,0-1.54.97-1.62,1.7h3.08Z"/>
      <path class="st0" d="M359.79-17.69c0-.61-.01-1.09-.05-1.57h.94l.06.96h.02c.29-.54.96-1.08,1.92-1.08.8,0,2.05.48,2.05,2.47v3.45h-1.06v-3.35c0-.94-.35-1.71-1.34-1.71-.68,0-1.22.49-1.41,1.08-.05.13-.07.31-.07.49v3.49h-1.06v-4.23Z"/>
      <path class="st0" d="M367.67-20.65v1.39h1.51v.8h-1.51v3.13c0,.72.2,1.13.79,1.13.29,0,.46-.02.61-.07l.05.8c-.2.07-.53.14-.94.14-.49,0-.89-.17-1.14-.44-.29-.32-.41-.84-.41-1.52v-3.17h-.9v-.8h.9v-1.08l1.03-.31Z"/>
      <path class="st0" d="M370.23-14.52c.32.19.88.41,1.4.41.76,0,1.12-.37,1.12-.86s-.3-.77-1.07-1.06c-1.06-.38-1.55-.95-1.55-1.64,0-.94.77-1.7,2-1.7.59,0,1.1.16,1.42.36l-.25.77c-.23-.14-.65-.35-1.19-.35-.62,0-.96.36-.96.79,0,.48.34.7,1.09,1,1,.37,1.52.88,1.52,1.74,0,1.03-.8,1.75-2.16,1.75-.64,0-1.22-.17-1.63-.41l.25-.79Z"/>
      <path class="st0" d="M377.67-17.45c0-.68-.01-1.27-.05-1.81h.92l.05,1.15h.04c.26-.78.91-1.27,1.62-1.27.11,0,.19.01.29.02v1c-.11-.02-.22-.02-.36-.02-.74,0-1.27.55-1.42,1.34-.02.14-.04.32-.04.49v3.09h-1.06v-3.99Z"/>
      <path class="st0" d="M382.06-16.16c.02,1.43.92,2.01,1.99,2.01.76,0,1.22-.13,1.61-.3l.19.76c-.37.17-1.02.37-1.94.37-1.79,0-2.85-1.19-2.85-2.94s1.03-3.12,2.72-3.12c1.91,0,2.4,1.66,2.4,2.72,0,.22-.01.37-.04.49h-4.08ZM385.15-16.92c.01-.66-.28-1.7-1.46-1.7-1.08,0-1.54.97-1.62,1.7h3.08Z"/>
      <path class="st0" d="M391.44-14.34h-.02c-.32.56-.96,1.02-1.89,1.02-1.36,0-2.46-1.16-2.46-2.93,0-2.18,1.4-3.13,2.63-3.13.9,0,1.5.44,1.79,1h.02l.04-.88h1c-.02.48-.05,1-.05,1.6v6.58h-1.04v-3.26ZM391.44-16.91c0-.14-.01-.3-.05-.43-.17-.65-.72-1.2-1.51-1.2-1.09,0-1.75.92-1.75,2.22,0,1.16.55,2.16,1.72,2.16.68,0,1.27-.42,1.51-1.14.05-.16.08-.36.08-.52v-1.09Z"/>
      <path class="st0" d="M399.1-15.05c0,.61.01,1.14.05,1.6h-.94l-.06-.95h-.02c-.26.47-.89,1.08-1.92,1.08-.91,0-2-.52-2-2.54v-3.39h1.06v3.2c0,1.1.35,1.86,1.3,1.86.71,0,1.2-.49,1.39-.97.06-.14.1-.34.1-.54v-3.55h1.06v4.21Z"/>
      <path class="st0" d="M402.03-20.89c0,.36-.25.65-.67.65-.38,0-.64-.29-.64-.65s.26-.66.66-.66.65.29.65.66ZM400.85-13.45v-5.8h1.06v5.8h-1.06Z"/>
      <path class="st0" d="M403.66-17.45c0-.68-.01-1.27-.05-1.81h.92l.05,1.15h.04c.26-.78.91-1.27,1.62-1.27.11,0,.19.01.29.02v1c-.11-.02-.22-.02-.36-.02-.74,0-1.27.55-1.42,1.34-.02.14-.04.32-.04.49v3.09h-1.06v-3.99Z"/>
      <path class="st0" d="M408.05-16.16c.02,1.43.92,2.01,1.99,2.01.76,0,1.22-.13,1.61-.3l.19.76c-.37.17-1.02.37-1.94.37-1.79,0-2.85-1.19-2.85-2.94s1.03-3.12,2.72-3.12c1.91,0,2.4,1.66,2.4,2.72,0,.22-.01.37-.04.49h-4.08ZM411.15-16.92c.01-.66-.28-1.7-1.46-1.7-1.08,0-1.54.97-1.62,1.7h3.08Z"/>
      <path class="st0" d="M418.48-21.97v7.02c0,.52.02,1.1.05,1.5h-.94l-.05-1.01h-.04c-.31.65-1.01,1.14-1.95,1.14-1.4,0-2.49-1.19-2.49-2.95-.01-1.93,1.2-3.11,2.6-3.11.9,0,1.49.42,1.75.88h.02v-3.47h1.04ZM417.43-16.89c0-.13-.01-.31-.05-.44-.16-.66-.73-1.21-1.52-1.21-1.09,0-1.74.96-1.74,2.23,0,1.18.59,2.15,1.72,2.15.71,0,1.35-.48,1.55-1.26.04-.14.05-.29.05-.46v-1.01Z"/>
      <path class="st0" d="M422.79-17.69c0-.61-.02-1.09-.05-1.57h.92l.05.95h.04c.32-.55.86-1.07,1.83-1.07.78,0,1.38.48,1.63,1.16h.02c.18-.34.42-.58.66-.76.35-.26.72-.41,1.27-.41.78,0,1.92.5,1.92,2.52v3.41h-1.03v-3.27c0-1.13-.42-1.79-1.26-1.79-.61,0-1.07.44-1.26.95-.05.16-.08.34-.08.53v3.59h-1.03v-3.48c0-.92-.41-1.58-1.21-1.58-.65,0-1.14.53-1.31,1.06-.06.14-.08.34-.08.52v3.49h-1.03v-4.23Z"/>
      <path class="st0" d="M436.87-14.84c0,.5.02,1,.08,1.39h-.95l-.08-.73h-.04c-.32.46-.95.86-1.77.86-1.18,0-1.77-.83-1.77-1.67,0-1.4,1.25-2.17,3.49-2.16v-.12c0-.47-.13-1.34-1.32-1.33-.55,0-1.12.16-1.52.43l-.24-.71c.48-.3,1.19-.5,1.92-.5,1.77,0,2.21,1.21,2.21,2.36v2.17ZM435.85-16.41c-1.15-.02-2.46.18-2.46,1.31,0,.7.46,1.01.98,1.01.77,0,1.26-.48,1.43-.97.04-.12.05-.24.05-.34v-1.01Z"/>
      <path class="st0" d="M438.58-17.45c0-.68-.01-1.27-.05-1.81h.92l.05,1.15h.04c.26-.78.91-1.27,1.62-1.27.11,0,.19.01.29.02v1c-.11-.02-.22-.02-.36-.02-.74,0-1.27.55-1.42,1.34-.02.14-.04.32-.04.49v3.09h-1.06v-3.99Z"/>
      <path class="st0" d="M447.37-14.3c0,1.34-.28,2.15-.83,2.66-.58.52-1.39.7-2.12.7s-1.46-.17-1.93-.48l.26-.82c.38.25.98.47,1.7.47,1.08,0,1.87-.56,1.87-2.04v-.64h-.02c-.31.54-.95.97-1.85.97-1.44,0-2.47-1.22-2.47-2.83,0-1.97,1.28-3.07,2.63-3.07,1.01,0,1.55.52,1.81,1h.02l.04-.88h.94c-.04.41-.05.89-.05,1.58v3.37ZM446.32-16.97c0-.18-.01-.34-.06-.47-.19-.62-.7-1.13-1.48-1.13-1.01,0-1.73.85-1.73,2.19,0,1.14.59,2.09,1.72,2.09.66,0,1.25-.41,1.46-1.08.06-.18.08-.38.08-.56v-1.04Z"/>
      <path class="st0" d="M450.22-20.89c0,.36-.25.65-.67.65-.38,0-.64-.29-.64-.65s.26-.66.66-.66.65.29.65.66ZM449.04-13.45v-5.8h1.06v5.8h-1.06Z"/>
      <path class="st0" d="M451.85-17.69c0-.61-.01-1.09-.05-1.57h.94l.06.96h.02c.29-.54.96-1.08,1.92-1.08.8,0,2.05.48,2.05,2.47v3.45h-1.06v-3.35c0-.94-.35-1.71-1.34-1.71-.68,0-1.22.49-1.41,1.08-.05.13-.07.31-.07.49v3.49h-1.06v-4.23Z"/>
      <path class="st0" d="M466.31-16.4c0,2.15-1.5,3.08-2.89,3.08-1.56,0-2.78-1.15-2.78-2.99,0-1.93,1.28-3.07,2.88-3.07s2.79,1.21,2.79,2.97ZM461.72-16.34c0,1.27.72,2.23,1.75,2.23s1.76-.95,1.76-2.25c0-.98-.49-2.22-1.74-2.22s-1.77,1.15-1.77,2.24Z"/>
      <path class="st0" d="M467.75-13.45v-5h-.8v-.8h.8v-.28c0-.82.19-1.56.67-2.03.4-.38.92-.54,1.42-.54.38,0,.7.08.9.17l-.14.82c-.16-.07-.36-.13-.67-.13-.9,0-1.13.78-1.13,1.68v.31h1.4v.8h-1.4v5h-1.04Z"/>
      <path class="st0" d="M477.83-13.66c-.28.13-.89.34-1.67.34-1.75,0-2.89-1.19-2.89-2.96s1.22-3.09,3.12-3.09c.62,0,1.18.16,1.46.31l-.24.8c-.25-.13-.65-.28-1.22-.28-1.33,0-2.05,1-2.05,2.19,0,1.34.86,2.17,2.02,2.17.6,0,1-.14,1.3-.28l.18.79Z"/>
      <path class="st0" d="M479.07-21.97h1.06v8.52h-1.06v-8.52Z"/>
      <path class="st0" d="M482.49-16.16c.02,1.43.92,2.01,1.99,2.01.76,0,1.22-.13,1.61-.3l.19.76c-.37.17-1.02.37-1.94.37-1.79,0-2.85-1.19-2.85-2.94s1.03-3.12,2.72-3.12c1.91,0,2.4,1.66,2.4,2.72,0,.22-.01.37-.04.49h-4.08ZM485.58-16.92c.01-.66-.28-1.7-1.46-1.7-1.08,0-1.54.97-1.62,1.7h3.08Z"/>
      <path class="st0" d="M491.99-14.84c0,.5.02,1,.08,1.39h-.95l-.08-.73h-.04c-.32.46-.95.86-1.78.86-1.17,0-1.77-.83-1.77-1.67,0-1.4,1.25-2.17,3.49-2.16v-.12c0-.47-.13-1.34-1.32-1.33-.55,0-1.12.16-1.52.43l-.24-.71c.48-.3,1.19-.5,1.92-.5,1.78,0,2.21,1.21,2.21,2.36v2.17ZM490.97-16.41c-1.15-.02-2.46.18-2.46,1.31,0,.7.46,1.01.98,1.01.77,0,1.26-.48,1.43-.97.04-.12.05-.24.05-.34v-1.01Z"/>
      <path class="st0" d="M493.7-17.45c0-.68-.01-1.27-.05-1.81h.92l.05,1.15h.04c.26-.78.91-1.27,1.62-1.27.11,0,.19.01.29.02v1c-.11-.02-.22-.02-.36-.02-.74,0-1.27.55-1.42,1.34-.02.14-.04.32-.04.49v3.09h-1.05v-3.99Z"/>
      <path class="st0" d="M500.02-14.52c.32.19.88.41,1.4.41.76,0,1.12-.37,1.12-.86s-.3-.77-1.07-1.06c-1.06-.38-1.55-.95-1.55-1.64,0-.94.77-1.7,2-1.7.59,0,1.1.16,1.41.36l-.25.77c-.23-.14-.65-.35-1.19-.35-.62,0-.96.36-.96.79,0,.48.34.7,1.09,1,1,.37,1.52.88,1.52,1.74,0,1.03-.8,1.75-2.16,1.75-.64,0-1.22-.17-1.63-.41l.25-.79Z"/>
      <path class="st0" d="M504.92-17.36c0-.74-.02-1.34-.05-1.89h.94l.06,1h.02c.42-.71,1.12-1.12,2.06-1.12,1.42,0,2.47,1.19,2.47,2.94,0,2.09-1.28,3.12-2.65,3.12-.77,0-1.44-.34-1.79-.91h-.02v3.15h-1.04v-6.28ZM505.96-15.82c0,.16.01.3.05.43.19.73.83,1.24,1.58,1.24,1.12,0,1.76-.91,1.76-2.24,0-1.15-.61-2.15-1.73-2.15-.72,0-1.4.5-1.59,1.3-.04.13-.07.29-.07.42v1.01Z"/>
      <path class="st0" d="M515.82-14.84c0,.5.02,1,.08,1.39h-.95l-.08-.73h-.04c-.32.46-.95.86-1.78.86-1.17,0-1.77-.83-1.77-1.67,0-1.4,1.25-2.17,3.49-2.16v-.12c0-.47-.13-1.34-1.32-1.33-.55,0-1.12.16-1.52.43l-.24-.71c.48-.3,1.19-.5,1.92-.5,1.78,0,2.21,1.21,2.21,2.36v2.17ZM514.8-16.41c-1.15-.02-2.46.18-2.46,1.31,0,.7.46,1.01.98,1.01.77,0,1.26-.48,1.43-.97.04-.12.05-.24.05-.34v-1.01Z"/>
      <path class="st0" d="M521.67-13.66c-.28.13-.89.34-1.67.34-1.75,0-2.89-1.19-2.89-2.96s1.22-3.09,3.12-3.09c.62,0,1.17.16,1.46.31l-.24.8c-.25-.13-.65-.28-1.22-.28-1.33,0-2.05,1-2.05,2.19,0,1.34.86,2.17,2.01,2.17.6,0,1-.14,1.29-.28l.18.79Z"/>
      <path class="st0" d="M523.42-16.16c.02,1.43.92,2.01,1.99,2.01.76,0,1.22-.13,1.61-.3l.19.76c-.37.17-1.02.37-1.94.37-1.79,0-2.85-1.19-2.85-2.94s1.03-3.12,2.72-3.12c1.91,0,2.4,1.66,2.4,2.72,0,.22-.01.37-.04.49h-4.08ZM526.51-16.92c.01-.66-.28-1.7-1.46-1.7-1.08,0-1.54.97-1.62,1.7h3.08Z"/>
      <path class="st0" d="M536.64-16.4c0,2.15-1.5,3.08-2.89,3.08-1.56,0-2.78-1.15-2.78-2.99,0-1.93,1.28-3.07,2.88-3.07s2.79,1.21,2.79,2.97ZM532.05-16.34c0,1.27.72,2.23,1.75,2.23s1.76-.95,1.76-2.25c0-.98-.49-2.22-1.74-2.22s-1.78,1.15-1.78,2.24Z"/>
      <path class="st0" d="M537.97-17.69c0-.61-.01-1.09-.05-1.57h.94l.06.96h.02c.29-.54.96-1.08,1.92-1.08.8,0,2.05.48,2.05,2.47v3.45h-1.05v-3.35c0-.94-.35-1.71-1.34-1.71-.68,0-1.22.49-1.41,1.08-.05.13-.07.31-.07.49v3.49h-1.05v-4.23Z"/>
      <path class="st0" d="M551.26-14.84c0,.5.02,1,.08,1.39h-.95l-.08-.73h-.04c-.32.46-.95.86-1.78.86-1.17,0-1.77-.83-1.77-1.67,0-1.4,1.25-2.17,3.49-2.16v-.12c0-.47-.13-1.34-1.32-1.33-.55,0-1.12.16-1.52.43l-.24-.71c.48-.3,1.19-.5,1.92-.5,1.78,0,2.21,1.21,2.21,2.36v2.17ZM550.24-16.41c-1.15-.02-2.46.18-2.46,1.31,0,.7.46,1.01.98,1.01.77,0,1.26-.48,1.43-.97.04-.12.05-.24.05-.34v-1.01Z"/>
      <path class="st0" d="M552.96-21.97h1.05v8.52h-1.05v-8.52Z"/>
      <path class="st0" d="M555.79-21.97h1.05v8.52h-1.05v-8.52Z"/>
      <path class="st0" d="M561.03-14.52c.32.19.88.41,1.4.41.76,0,1.12-.37,1.12-.86s-.3-.77-1.07-1.06c-1.06-.38-1.55-.95-1.55-1.64,0-.94.77-1.7,2-1.7.59,0,1.1.16,1.41.36l-.25.77c-.23-.14-.65-.35-1.19-.35-.62,0-.96.36-.96.79,0,.48.34.7,1.09,1,1,.37,1.52.88,1.52,1.74,0,1.03-.8,1.75-2.16,1.75-.64,0-1.22-.17-1.63-.41l.25-.79Z"/>
      <path class="st0" d="M567.1-20.89c0,.36-.25.65-.67.65-.38,0-.64-.29-.64-.65s.26-.66.66-.66.65.29.65.66ZM565.92-13.45v-5.8h1.05v5.8h-1.05Z"/>
      <path class="st0" d="M573.73-21.97v7.02c0,.52.02,1.1.05,1.5h-.94l-.05-1.01h-.04c-.31.65-1.01,1.14-1.96,1.14-1.4,0-2.49-1.19-2.49-2.95-.01-1.93,1.2-3.11,2.6-3.11.9,0,1.49.42,1.75.88h.02v-3.47h1.04ZM572.69-16.89c0-.13-.01-.31-.05-.44-.16-.66-.73-1.21-1.52-1.21-1.09,0-1.74.96-1.74,2.23,0,1.18.59,2.15,1.71,2.15.71,0,1.36-.48,1.55-1.26.04-.14.05-.29.05-.46v-1.01Z"/>
      <path class="st0" d="M576.08-16.16c.02,1.43.92,2.01,1.99,2.01.76,0,1.22-.13,1.61-.3l.19.76c-.37.17-1.02.37-1.94.37-1.79,0-2.85-1.19-2.85-2.94s1.03-3.12,2.72-3.12c1.91,0,2.4,1.66,2.4,2.72,0,.22-.01.37-.04.49h-4.08ZM579.18-16.92c.01-.66-.28-1.7-1.46-1.7-1.08,0-1.54.97-1.62,1.7h3.08Z"/>
      <path class="st0" d="M581.37-14.52c.32.19.88.41,1.4.41.76,0,1.12-.37,1.12-.86s-.3-.77-1.07-1.06c-1.06-.38-1.55-.95-1.55-1.64,0-.94.77-1.7,2-1.7.59,0,1.1.16,1.41.36l-.25.77c-.23-.14-.65-.35-1.19-.35-.62,0-.96.36-.96.79,0,.48.34.7,1.09,1,1,.37,1.52.88,1.52,1.74,0,1.03-.8,1.75-2.16,1.75-.63,0-1.22-.17-1.63-.41l.25-.79Z"/>
      <path class="st0" d="M592.88-14.84c0,.5.02,1,.08,1.39h-.95l-.08-.73h-.04c-.32.46-.95.86-1.78.86-1.17,0-1.77-.83-1.77-1.67,0-1.4,1.25-2.17,3.49-2.16v-.12c0-.47-.13-1.34-1.32-1.33-.55,0-1.12.16-1.52.43l-.24-.71c.48-.3,1.19-.5,1.92-.5,1.78,0,2.21,1.21,2.21,2.36v2.17ZM591.86-16.41c-1.15-.02-2.46.18-2.46,1.31,0,.7.46,1.01.98,1.01.77,0,1.26-.48,1.43-.97.04-.12.05-.24.05-.34v-1.01Z"/>
      <path class="st0" d="M594.59-17.45c0-.68-.01-1.27-.05-1.81h.92l.05,1.15h.04c.26-.78.91-1.27,1.62-1.27.11,0,.19.01.29.02v1c-.11-.02-.22-.02-.36-.02-.74,0-1.27.55-1.41,1.34-.02.14-.04.32-.04.49v3.09h-1.05v-3.99Z"/>
      <path class="st0" d="M603.65-16.4c0,2.15-1.5,3.08-2.89,3.08-1.56,0-2.78-1.15-2.78-2.99,0-1.93,1.28-3.07,2.88-3.07s2.79,1.21,2.79,2.97ZM599.05-16.34c0,1.27.72,2.23,1.75,2.23s1.76-.95,1.76-2.25c0-.98-.49-2.22-1.74-2.22s-1.78,1.15-1.78,2.24Z"/>
      <path class="st0" d="M609.84-15.05c0,.61.01,1.14.05,1.6h-.94l-.06-.95h-.02c-.26.47-.89,1.08-1.92,1.08-.91,0-2-.52-2-2.54v-3.39h1.05v3.2c0,1.1.35,1.86,1.3,1.86.71,0,1.2-.49,1.39-.97.06-.14.1-.34.1-.54v-3.55h1.05v4.21Z"/>
      <path class="st0" d="M611.59-17.69c0-.61-.01-1.09-.05-1.57h.94l.06.96h.02c.29-.54.96-1.08,1.92-1.08.8,0,2.05.48,2.05,2.47v3.45h-1.05v-3.35c0-.94-.35-1.71-1.34-1.71-.68,0-1.22.49-1.41,1.08-.05.13-.07.31-.07.49v3.49h-1.05v-4.23Z"/>
      <path class="st0" d="M623.25-21.97v7.02c0,.52.02,1.1.05,1.5h-.94l-.05-1.01h-.04c-.31.65-1.01,1.14-1.96,1.14-1.4,0-2.49-1.19-2.49-2.95-.01-1.93,1.2-3.11,2.6-3.11.9,0,1.49.42,1.75.88h.02v-3.47h1.04ZM622.21-16.89c0-.13-.01-.31-.05-.44-.16-.66-.73-1.21-1.52-1.21-1.09,0-1.74.96-1.74,2.23,0,1.18.59,2.15,1.71,2.15.71,0,1.36-.48,1.55-1.26.04-.14.05-.29.05-.46v-1.01Z"/>
      <path class="st0" d="M632.82-16.4c0,2.15-1.5,3.08-2.89,3.08-1.56,0-2.78-1.15-2.78-2.99,0-1.93,1.28-3.07,2.88-3.07s2.79,1.21,2.79,2.97ZM628.22-16.34c0,1.27.72,2.23,1.75,2.23s1.76-.95,1.76-2.25c0-.98-.49-2.22-1.74-2.22s-1.78,1.15-1.78,2.24Z"/>
      <path class="st0" d="M639.01-15.05c0,.61.01,1.14.05,1.6h-.94l-.06-.95h-.02c-.26.47-.89,1.08-1.92,1.08-.91,0-2-.52-2-2.54v-3.39h1.05v3.2c0,1.1.35,1.86,1.3,1.86.71,0,1.2-.49,1.39-.97.06-.14.1-.34.1-.54v-3.55h1.05v4.21Z"/>
      <path class="st0" d="M640.77-17.45c0-.68-.01-1.27-.05-1.81h.92l.05,1.15h.04c.26-.78.91-1.27,1.62-1.27.11,0,.19.01.29.02v1c-.11-.02-.22-.02-.36-.02-.74,0-1.27.55-1.42,1.34-.02.14-.04.32-.04.49v3.09h-1.05v-3.99Z"/>
      <path class="st0" d="M647.23-21.97h1.05v8.52h-1.05v-8.52Z"/>
      <path class="st0" d="M655.32-16.4c0,2.15-1.5,3.08-2.89,3.08-1.56,0-2.78-1.15-2.78-2.99,0-1.93,1.28-3.07,2.88-3.07s2.79,1.21,2.79,2.97ZM650.72-16.34c0,1.27.72,2.23,1.75,2.23s1.76-.95,1.76-2.25c0-.98-.49-2.22-1.74-2.22s-1.78,1.15-1.78,2.24Z"/>
      <path class="st0" d="M661.62-14.3c0,1.34-.28,2.15-.83,2.66-.58.52-1.39.7-2.12.7s-1.46-.17-1.93-.48l.26-.82c.38.25.98.47,1.7.47,1.08,0,1.87-.56,1.87-2.04v-.64h-.02c-.31.54-.95.97-1.85.97-1.44,0-2.47-1.22-2.47-2.83,0-1.97,1.28-3.07,2.63-3.07,1.01,0,1.55.52,1.81,1h.02l.04-.88h.94c-.04.41-.05.89-.05,1.58v3.37ZM660.56-16.97c0-.18-.01-.34-.06-.47-.19-.62-.7-1.13-1.48-1.13-1.01,0-1.73.85-1.73,2.19,0,1.14.59,2.09,1.71,2.09.66,0,1.25-.41,1.46-1.08.06-.18.08-.38.08-.56v-1.04Z"/>
      <path class="st0" d="M668.61-16.4c0,2.15-1.5,3.08-2.89,3.08-1.56,0-2.78-1.15-2.78-2.99,0-1.93,1.28-3.07,2.88-3.07s2.79,1.21,2.79,2.97ZM664.02-16.34c0,1.27.72,2.23,1.75,2.23s1.76-.95,1.76-2.25c0-.98-.49-2.22-1.74-2.22s-1.78,1.15-1.78,2.24Z"/>
      <path class="st0" d="M669.41-14.08c0-.43.3-.76.72-.76s.71.31.71.76-.29.76-.73.76c-.41,0-.7-.32-.7-.76Z"/>
    </g>
  </g>
  <g id="Layer_3">
    <g>
      <path class="st1" d="M71.11,348.08c0,2.98-.83,4.85-2.43,5.74-.83.44-2.1.66-3.81.66h-9.15v-4.69h6.73c.94,0,1.66-.11,2.1-.33.83-.44,1.27-1.49,1.27-3.15v-4.47h-6.62c-1.66,0-2.92-.22-3.75-.66-1.6-.88-2.43-2.76-2.43-5.68v-17.27h5.24v15.45c0,1.55.44,2.54,1.38,2.98.44.22,1.21.33,2.31.33h.17c1.11,0,1.88-.11,2.32-.33.94-.44,1.38-1.44,1.38-2.98v-15.45h5.3v29.85Z"/>
      <path class="st1" d="M93.18,319.06c1.66.88,2.43,2.82,2.43,5.79v11.37c0,2.54-.83,4.25-2.48,5.08-.77.44-2.21.66-4.19.66h-4.96c-1.99,0-3.37-.22-4.19-.66-1.65-.83-2.48-2.54-2.48-5.08v-11.37c0-2.98.83-4.91,2.43-5.79.83-.44,2.1-.66,3.81-.66h5.85c1.71,0,2.98.22,3.8.66ZM90.31,334.07v-7.39c0-2.37-1.16-3.59-3.47-3.59h-.77c-2.31,0-3.42,1.21-3.42,3.59v7.39c0,1.38.44,2.37,1.33,2.82.44.22,1.21.39,2.37.39h.22c1.16,0,1.93-.17,2.37-.39.88-.44,1.38-1.44,1.38-2.82Z"/>
      <path class="st1" d="M104.21,341.24c-1.6-.88-2.43-2.81-2.43-5.73v-17.32h5.3v15.45c0,1.65.44,2.76,1.33,3.2.44.28,1.16.39,2.09.39h.72c.99,0,1.71-.11,2.15-.39.88-.44,1.38-1.49,1.38-3.2v-15.45h5.24v17.32c0,2.92-.77,4.85-2.43,5.73-.82.39-2.1.61-3.81.61h-5.74c-1.76,0-3.04-.22-3.81-.61Z"/>
      <path class="st1" d="M139.36,326.4c-.11,0-.17-.05-.17-.17,0-2.21-1.16-3.37-3.48-3.37h-.72c-2.31,0-3.47,1.22-3.47,3.59v15.28h-5.3v-17.1c0-2.98.83-4.91,2.43-5.79.83-.38,2.04-.61,3.81-.61h5.79c1.77,0,2.98.22,3.75.61,1.66.88,2.48,2.76,2.48,5.63,0,.05-.05.17-.28.27l-4.85,1.66Z"/>
      <path class="st1" d="M180.57,336.17c0,2.54-.83,4.19-2.48,5.07-.77.39-2.15.56-4.14.56h-4.8c-1.99,0-3.37-.17-4.14-.56-1.65-.88-2.48-2.53-2.48-5.07v-11.48c0-2.98.77-4.85,2.37-5.68.82-.39,2.1-.61,3.81-.61h5.68c1.71,0,2.93.22,3.75.61,1.6.83,2.43,2.76,2.43,5.68v1.38h-4.64c0-2.04-1.16-3.09-3.36-3.09h-1.44c-.94,0-1.65.11-2.04.33-.88.5-1.33,1.55-1.33,3.2v7.56c0,1.44.44,2.32,1.38,2.76.44.28,1.21.39,2.31.39h.83c1.11,0,1.88-.11,2.32-.39.83-.38,1.27-1.16,1.32-2.31h4.64v1.66Z"/>
      <path class="st1" d="M201.81,319.06c1.66.88,2.43,2.82,2.43,5.79v11.37c0,2.54-.83,4.25-2.48,5.08-.77.44-2.21.66-4.19.66h-4.96c-1.99,0-3.37-.22-4.19-.66-1.65-.83-2.48-2.54-2.48-5.08v-11.37c0-2.98.83-4.91,2.43-5.79.83-.44,2.1-.66,3.8-.66h5.85c1.71,0,2.98.22,3.81.66ZM198.94,334.07v-7.39c0-2.37-1.16-3.59-3.47-3.59h-.77c-2.32,0-3.42,1.21-3.42,3.59v7.39c0,1.38.44,2.37,1.33,2.82.44.22,1.21.39,2.37.39h.22c1.16,0,1.93-.17,2.37-.39.88-.44,1.38-1.44,1.38-2.82Z"/>
      <path class="st1" d="M238.99,319.01c1.65.88,2.48,2.76,2.48,5.73v17.16h-5.24v-15.28c0-1.66-.5-2.76-1.38-3.26-.44-.22-1.1-.33-2.09-.33h-.72c-.99,0-1.71.11-2.15.33-.83.44-1.27,1.22-1.27,2.32v16.22h-5.35v-16.22c0-1.76-1.16-2.65-3.42-2.65h-.72c-.99,0-1.71.11-2.1.33-.89.44-1.32,1.54-1.32,3.26v15.28h-5.3v-17.16c0-2.98.83-4.85,2.43-5.73.77-.39,2.04-.61,3.8-.61h18.6c1.71,0,2.98.17,3.75.61Z"/>
      <path class="st1" d="M276.29,319.01c1.65.88,2.48,2.76,2.48,5.73v17.16h-5.24v-15.28c0-1.66-.5-2.76-1.38-3.26-.44-.22-1.1-.33-2.1-.33h-.72c-.99,0-1.71.11-2.15.33-.83.44-1.27,1.22-1.27,2.32v16.22h-5.35v-16.22c0-1.76-1.16-2.65-3.42-2.65h-.72c-.99,0-1.71.11-2.1.33-.89.44-1.33,1.54-1.33,3.26v15.28h-5.3v-17.16c0-2.98.83-4.85,2.43-5.73.77-.39,2.04-.61,3.81-.61h18.6c1.71,0,2.98.17,3.75.61Z"/>
      <path class="st1" d="M287.44,341.24c-1.6-.88-2.43-2.81-2.43-5.73v-17.32h5.3v15.45c0,1.65.44,2.76,1.33,3.2.44.28,1.16.39,2.09.39h.72c.99,0,1.71-.11,2.15-.39.88-.44,1.38-1.49,1.38-3.2v-15.45h5.24v17.32c0,2.92-.77,4.85-2.43,5.73-.82.39-2.09.61-3.8.61h-5.74c-1.76,0-3.03-.22-3.8-.61Z"/>
      <path class="st1" d="M325.22,318.95c1.6.89,2.43,2.82,2.43,5.74v17.16h-5.3v-15.34c0-1.66-.44-2.7-1.38-3.2-.39-.22-1.1-.33-2.1-.33h-.72c-.94,0-1.66.11-2.1.33-.89.5-1.32,1.55-1.32,3.2v15.34h-5.3v-17.16c0-2.92.83-4.85,2.43-5.74.77-.39,2.04-.61,3.81-.61h5.74c1.76,0,3.03.22,3.8.61Z"/>
      <path class="st1" d="M338.58,314.48c-.55.55-1.21.77-1.98.77s-1.44-.22-1.93-.77c-.5-.55-.77-1.21-.77-1.98,0-.72.27-1.38.83-1.88.49-.55,1.16-.82,1.88-.82.77,0,1.43.27,1.98.77.5.55.77,1.16.77,1.93s-.28,1.43-.77,1.98ZM339.29,341.85h-5.35v-23.67h5.35v23.67Z"/>
      <path class="st1" d="M350.93,312.44l-.05-.22h5.35v6.07h6.18l-.82,4.96h-5.35v10.81c0,1.44.44,2.37,1.38,2.82.39.22,1.16.39,2.32.39l.55,4.58h-2.87c-1.98,0-3.37-.16-4.14-.61-1.66-.82-2.49-2.48-2.49-5.02l.06-12.91-6.46-.05.88-4.96h5.46v-5.85Z"/>
      <path class="st1" d="M386.02,348.08c0,2.98-.83,4.85-2.43,5.74-.83.44-2.1.66-3.81.66h-9.16v-4.69h6.73c.94,0,1.66-.11,2.1-.33.83-.44,1.27-1.49,1.27-3.15v-4.47h-6.62c-1.66,0-2.92-.22-3.75-.66-1.6-.88-2.43-2.76-2.43-5.68v-17.27h5.24v15.45c0,1.55.44,2.54,1.38,2.98.44.22,1.21.33,2.32.33h.17c1.11,0,1.88-.11,2.32-.33.93-.44,1.38-1.44,1.38-2.98v-15.45h5.3v29.85Z"/>
      <path class="st1" d="M411.24,332.47c-.22,0-.33.05-.33.27v.89c0,1.6.44,2.7,1.33,3.2,1.05.22,1.76.39,2.15.39h9.49v4.63h-12.03c-1.71,0-2.98-.22-3.81-.61-1.6-.88-2.43-2.81-2.43-5.79v-11.42c0-2.59.83-4.25,2.48-5.13.83-.39,2.21-.6,4.19-.6h4.91c1.93,0,3.31.22,4.19.6,1.66.88,2.48,2.54,2.48,5.13v2.7c0,2.54-.83,4.25-2.48,5.08-.82.44-2.21.66-4.19.66h-5.96ZM412.29,323.31c-.94.5-1.38,1.43-1.38,2.82v1.6h3.97c1.21,0,1.99-.05,2.37-.22.94-.39,1.38-.99,1.38-1.82.06-1.1-.39-1.88-1.33-2.37-.44-.22-1.27-.33-2.43-.33h-.27c-1.05,0-1.82.11-2.32.33Z"/>
      <path class="st1" d="M445.66,318.95c1.6.89,2.43,2.82,2.43,5.74v17.16h-5.3v-15.34c0-1.66-.44-2.7-1.38-3.2-.38-.22-1.1-.33-2.1-.33h-.72c-.94,0-1.66.11-2.1.33-.89.5-1.33,1.55-1.33,3.2v15.34h-5.3v-17.16c0-2.92.83-4.85,2.43-5.74.77-.39,2.04-.61,3.81-.61h5.74c1.76,0,3.03.22,3.8.61Z"/>
      <path class="st1" d="M459.96,332.47c-.22,0-.33.05-.33.27v.89c0,1.6.44,2.7,1.32,3.2,1.05.22,1.77.39,2.15.39h9.49v4.63h-12.03c-1.71,0-2.98-.22-3.8-.61-1.6-.88-2.43-2.81-2.43-5.79v-11.42c0-2.59.83-4.25,2.48-5.13.83-.39,2.21-.6,4.19-.6h4.91c1.93,0,3.31.22,4.19.6,1.66.88,2.48,2.54,2.48,5.13v2.7c0,2.54-.83,4.25-2.48,5.08-.82.44-2.21.66-4.19.66h-5.96ZM461.01,323.31c-.94.5-1.38,1.43-1.38,2.82v1.6h3.97c1.21,0,1.99-.05,2.37-.22.94-.39,1.38-.99,1.38-1.82.06-1.1-.38-1.88-1.32-2.37-.44-.22-1.27-.33-2.43-.33h-.27c-1.05,0-1.82.11-2.32.33Z"/>
      <path class="st1" d="M491.73,326.4c-.11,0-.17-.05-.17-.17,0-2.21-1.16-3.37-3.48-3.37h-.72c-2.31,0-3.47,1.22-3.47,3.59v15.28h-5.3v-17.1c0-2.98.83-4.91,2.43-5.79.83-.38,2.04-.61,3.8-.61h5.8c1.77,0,2.98.22,3.75.61,1.66.88,2.48,2.76,2.48,5.63,0,.05-.05.17-.28.27l-4.85,1.66Z"/>
      <path class="st1" d="M504.21,354.48v-4.69h6.73c.94,0,1.66-.11,2.1-.33.83-.44,1.27-1.49,1.27-3.15v-4.63h-6.62c-1.66,0-2.92-.22-3.75-.66-1.6-.88-2.43-2.76-2.43-5.68v-11.42c0-2.54.83-4.19,2.48-5.08.83-.38,2.21-.61,4.14-.61h4.8c1.98,0,3.37.22,4.19.61,1.66.88,2.48,2.54,2.48,5.08v24.16c0,2.98-.83,4.85-2.43,5.74-.83.44-2.1.66-3.81.66h-9.15ZM514.3,322.87h-4.14c-2.27,0-3.42,1.22-3.42,3.59v7.23c0,1.43.44,2.37,1.38,2.82.44.22,1.21.33,2.32.33h.17c1.11,0,1.87-.11,2.32-.33.93-.44,1.38-1.38,1.38-2.82v-10.82Z"/>
      <path class="st1" d="M543.87,348.08c0,2.98-.83,4.85-2.43,5.74-.83.44-2.1.66-3.81.66h-9.15v-4.69h6.73c.94,0,1.66-.11,2.1-.33.83-.44,1.27-1.49,1.27-3.15v-4.47h-6.62c-1.66,0-2.92-.22-3.75-.66-1.6-.88-2.43-2.76-2.43-5.68v-17.27h5.24v15.45c0,1.55.44,2.54,1.38,2.98.44.22,1.21.33,2.32.33h.17c1.11,0,1.87-.11,2.32-.33.93-.44,1.38-1.44,1.38-2.98v-15.45h5.3v29.85Z"/>
      <path class="st1" d="M581.5,336.17c0,2.54-.83,4.19-2.48,5.07-.77.39-2.15.56-4.14.56h-4.8c-1.99,0-3.37-.17-4.14-.56-1.65-.88-2.48-2.53-2.48-5.07v-11.48c0-2.98.77-4.85,2.37-5.68.82-.39,2.1-.61,3.81-.61h5.68c1.71,0,2.93.22,3.75.61,1.6.83,2.43,2.76,2.43,5.68v1.38h-4.64c0-2.04-1.16-3.09-3.36-3.09h-1.44c-.93,0-1.65.11-2.04.33-.88.5-1.33,1.55-1.33,3.2v7.56c0,1.44.44,2.32,1.38,2.76.44.28,1.21.39,2.31.39h.83c1.11,0,1.88-.11,2.32-.39.83-.38,1.27-1.16,1.32-2.31h4.64v1.66Z"/>
      <path class="st1" d="M602.74,319.06c1.66.88,2.43,2.82,2.43,5.79v11.37c0,2.54-.83,4.25-2.48,5.08-.77.44-2.21.66-4.19.66h-4.96c-1.99,0-3.37-.22-4.19-.66-1.65-.83-2.48-2.54-2.48-5.08v-11.37c0-2.98.83-4.91,2.42-5.79.83-.44,2.1-.66,3.81-.66h5.85c1.71,0,2.98.22,3.8.66ZM599.87,334.07v-7.39c0-2.37-1.16-3.59-3.47-3.59h-.77c-2.32,0-3.42,1.21-3.42,3.59v7.39c0,1.38.44,2.37,1.33,2.82.44.22,1.21.39,2.37.39h.22c1.16,0,1.93-.17,2.37-.39.88-.44,1.38-1.44,1.38-2.82Z"/>
      <path class="st1" d="M639.93,319.01c1.65.88,2.48,2.76,2.48,5.73v17.16h-5.24v-15.28c0-1.66-.49-2.76-1.38-3.26-.44-.22-1.1-.33-2.1-.33h-.72c-.99,0-1.71.11-2.15.33-.83.44-1.27,1.22-1.27,2.32v16.22h-5.36v-16.22c0-1.76-1.16-2.65-3.42-2.65h-.72c-.99,0-1.71.11-2.1.33-.88.44-1.32,1.54-1.32,3.26v15.28h-5.3v-17.16c0-2.98.83-4.85,2.43-5.73.77-.39,2.04-.61,3.8-.61h18.6c1.71,0,2.98.17,3.75.61Z"/>
      <path class="st1" d="M653.99,354.48h-5.35v-30.4c0-2.54.83-4.31,2.54-5.13.77-.39,2.15-.55,4.19-.55h4.91c2.04,0,3.47.17,4.25.55,1.71.83,2.54,2.6,2.54,5.13v11.53c0,2.98-.83,4.86-2.48,5.74-.83.44-2.09.72-3.81.72h-6.78v12.41ZM661.66,334.13v-7.45c0-1.71-.44-2.76-1.33-3.26-.44-.22-1.16-.33-2.15-.33h-4.19v11.04c0,1.43.44,2.37,1.38,2.87.44.22,1.21.33,2.32.33h.27c1.11,0,1.88-.11,2.32-.33.94-.49,1.38-1.43,1.38-2.87Z"/>
      <path class="st1" d="M686.26,326.12c.11,0,.17-.06.17-.11-.05-1.32-.49-2.26-1.38-2.76-.93-.22-1.65-.33-2.15-.33h-9.66v-4.75h12.19c1.82,0,3.14.22,3.92.66,1.6.88,2.43,2.87,2.43,6.01v11.2c0,2.59-.83,4.3-2.48,5.18-.83.39-2.26.61-4.3.61h-4.91c-2.04,0-3.47-.22-4.3-.61-1.71-.93-2.59-2.65-2.59-5.18v-4.14c0-2.6.88-4.31,2.59-5.19.77-.38,2.15-.6,4.25-.6h6.23ZM685,336.77c.94-.5,1.43-1.43,1.43-2.87v-3.03h-4.02c-1.99,0-3.2.61-3.58,1.77-.11.33-.17.77-.23,1.27.11,1.44.56,2.43,1.44,2.87.44.22,1.21.33,2.37.33h.22c1.16,0,1.93-.11,2.37-.33Z"/>
      <path class="st1" d="M713.8,318.95c1.6.89,2.43,2.82,2.43,5.74v17.16h-5.3v-15.34c0-1.66-.44-2.7-1.38-3.2-.39-.22-1.1-.33-2.1-.33h-.72c-.94,0-1.66.11-2.1.33-.89.5-1.32,1.55-1.32,3.2v15.34h-5.3v-17.16c0-2.92.83-4.85,2.43-5.74.77-.39,2.04-.61,3.81-.61h5.74c1.76,0,3.03.22,3.81.61Z"/>
      <path class="st1" d="M740.56,348.08c0,2.98-.83,4.85-2.43,5.74-.83.44-2.1.66-3.81.66h-9.16v-4.69h6.73c.94,0,1.66-.11,2.09-.33.83-.44,1.27-1.49,1.27-3.15v-4.47h-6.62c-1.66,0-2.92-.22-3.75-.66-1.6-.88-2.43-2.76-2.43-5.68v-17.27h5.24v15.45c0,1.55.44,2.54,1.38,2.98.44.22,1.21.33,2.31.33h.17c1.11,0,1.88-.11,2.32-.33.94-.44,1.38-1.44,1.38-2.98v-15.45h5.3v29.85Z"/>
    </g>
    <text/>
  </g>
</svg>